<svg width="200" height="40" viewBox="0 0 200 40" fill="none" xmlns="http://www.w3.org/2000/svg">
<path d="M33.6541 24.2867V0H38.659L53.904 17.7428V0H58.5063V24.2867H53.5013L38.1959 6.52143V24.2867H33.6541Z" fill="white"/>
<path d="M62.4182 24.2867V0H85.304V4.49754H67.0207V9.89459H81.7256V14.3921H67.0207V19.7892H85.3155V24.2867H62.4182Z" fill="white"/>
<path d="M93.5267 24.2867C92.257 24.2779 91.0419 23.7811 90.1441 22.9037C89.2462 22.0263 88.7379 20.8388 88.7288 19.598V0H93.2851V18.6086C93.2851 19.2382 93.3253 19.5924 93.4059 19.6711C93.4864 19.7498 93.8488 19.7892 94.4932 19.7892H107.782C108.403 19.7892 108.76 19.7498 108.852 19.6711C108.944 19.5924 108.99 19.2382 108.99 18.6086V0H113.593V19.598C113.583 20.8388 113.075 22.0263 112.177 22.9037C111.279 23.7811 110.064 24.2779 108.795 24.2867H93.5267Z" fill="white"/>
<path d="M117.358 24.2867V0.0337033H137.378C138.015 0.0256498 138.648 0.146316 139.236 0.388152C139.824 0.629989 140.355 0.987793 140.795 1.43918C141.246 1.86516 141.604 2.37632 141.848 2.94166C142.091 3.507 142.214 4.11473 142.21 4.72801V11.2663C142.218 11.8827 142.097 12.4942 141.854 13.0628C141.61 13.6315 141.25 14.1452 140.795 14.572C140.352 15.018 139.82 15.3707 139.232 15.6085C138.645 15.8464 138.014 15.9643 137.378 15.955H136.031L142.175 23.0386V24.2867H137.205L130.046 15.955L121.9 15.9887V24.2867H117.358ZM123.111 11.4687H136.4C137.021 11.4687 137.369 11.435 137.452 11.3675C137.536 11.3 137.573 10.9515 137.573 10.3218V5.67812C137.573 5.04846 137.53 4.69428 137.452 4.61557C137.375 4.53687 137.021 4.49751 136.4 4.49751H123.111C122.466 4.49751 122.104 4.53687 122.023 4.61557C121.94 4.69428 121.902 5.04846 121.902 5.67812V10.3218C121.902 10.9515 121.94 11.3 122.023 11.3675C122.107 11.435 122.463 11.4687 123.111 11.4687Z" fill="white"/>
<path d="M150.583 24.2876C149.314 24.2788 148.098 23.7819 147.201 22.9046C146.303 22.0272 145.794 20.8397 145.785 19.5989V4.70081C145.777 4.08445 145.898 3.47295 146.142 2.90429C146.385 2.33562 146.745 1.82194 147.201 1.39512C147.637 0.950369 148.163 0.598102 148.745 0.360193C149.327 0.122283 149.952 0.00380986 150.583 0.0121283H165.828C166.459 0.00481147 167.084 0.123741 167.666 0.361591C168.248 0.599441 168.773 0.951174 169.211 1.39512C169.665 1.82286 170.024 2.33671 170.268 2.90516C170.511 3.47361 170.633 4.08466 170.626 4.70081V19.5989C170.617 20.8397 170.109 22.0272 169.211 22.9046C168.313 23.7819 167.098 24.2788 165.828 24.2876H150.583ZM151.55 19.7901H164.839C165.46 19.7901 165.814 19.7507 165.909 19.672C166.004 19.5933 166.047 19.2391 166.047 18.6095V5.67903C166.047 5.04937 165.998 4.69519 165.909 4.61649C165.82 4.53778 165.46 4.49842 164.839 4.49842H151.55C150.902 4.49842 150.543 4.53778 150.462 4.61649C150.382 4.69519 150.342 5.04937 150.342 5.67903V18.6095C150.342 19.2391 150.379 19.5933 150.462 19.672C150.546 19.7507 150.902 19.8013 151.55 19.8013V19.7901Z" fill="white"/>
<path d="M174.432 24.2867V0H179.437L194.682 17.7428V0H199.284V24.2867H194.279L178.988 6.52143V24.2867H174.432Z" fill="white"/>
<path d="M165.184 40V32.1012H172.585V33.2846H166.406V35.4743H171.374V36.6606H166.406V40H165.184Z" fill="#68C6E6"/>
<path d="M174.708 40C174.516 40.0007 174.326 39.9644 174.149 39.893C173.972 39.8217 173.81 39.7167 173.675 39.5842C173.539 39.4517 173.432 39.2943 173.359 39.1211C173.286 38.9479 173.249 38.7622 173.249 38.5748V32.1012H174.46V38.4034C174.443 38.4597 174.441 38.5197 174.456 38.5769C174.47 38.6341 174.5 38.6863 174.543 38.7282C174.585 38.77 174.639 38.7997 174.697 38.8143C174.755 38.8289 174.817 38.8277 174.875 38.811H179.687C179.806 38.8257 179.926 38.7966 180.024 38.7294C180.088 38.6331 180.117 38.5179 180.104 38.4034V32.1012H181.327V38.5664C181.325 38.9439 181.171 39.3056 180.898 39.5725C180.625 39.8395 180.255 39.9901 179.868 39.9916L174.708 40Z" fill="#68C6E6"/>
<path d="M182.56 40V32.1012H183.999L189.406 38.3949V32.1012H190.629V40H189.191L183.771 33.695V40H182.56Z" fill="#68C6E6"/>
<path d="M191.914 40V32.1012H198.53C198.723 32.098 198.915 32.1332 199.093 32.2047C199.272 32.2763 199.434 32.3826 199.569 32.5172C199.708 32.6474 199.818 32.8042 199.892 32.9778C199.966 33.1514 200.003 33.3382 200 33.5263V38.5664C200.003 38.7545 199.966 38.9412 199.892 39.1149C199.818 39.2885 199.708 39.4453 199.569 39.5755C199.434 39.7101 199.272 39.8164 199.093 39.8879C198.915 39.9595 198.723 39.9947 198.53 39.9915L191.914 40ZM193.543 38.8165H198.355C198.474 38.8313 198.594 38.8022 198.692 38.735C198.755 38.6383 198.782 38.5231 198.769 38.409V33.695C198.782 33.5817 198.755 33.4676 198.692 33.3717C198.594 33.3045 198.474 33.2755 198.355 33.2902H193.543C193.426 33.2772 193.308 33.3061 193.212 33.3717C193.143 33.4651 193.112 33.5805 193.125 33.695V38.409C193.111 38.5244 193.142 38.6407 193.212 38.735C193.308 38.8006 193.426 38.8296 193.543 38.8165V38.8165Z" fill="#68C6E6"/>
<path d="M26 12.093C26.0044 13.8536 25.5942 15.5937 24.7985 17.1906L17.5686 13.3023C17.3203 13.169 17.1141 12.9771 16.9707 12.7459C16.8273 12.5146 16.7518 12.2523 16.7518 11.9852C16.7518 11.7182 16.8273 11.4558 16.9707 11.2246C17.1141 10.9934 17.3203 10.8015 17.5686 10.6682L24.7084 6.82751C25.5606 8.4691 26.0022 10.2694 26 12.093Z" fill="#68C6E6"/>
<path d="M8.61772 13.3023L1.24362 17.2718C0.410327 15.6235 -0.0145075 13.8217 0.00057088 11.9998C0.0156492 10.1778 0.470254 8.38238 1.33073 6.74634L8.61772 10.6654C8.86672 10.7985 9.07361 10.9905 9.21749 11.222C9.36136 11.4535 9.43713 11.7163 9.43713 11.9839C9.43713 12.2514 9.36136 12.5142 9.21749 12.7457C9.07361 12.9772 8.86672 13.1692 8.61772 13.3023Z" fill="#68C6E6"/>
<path d="M12.2041 0V7.73449C12.2041 8.00146 12.1287 8.26372 11.9854 8.49489C11.8421 8.72607 11.636 8.91799 11.3879 9.05136C11.1397 9.18473 10.8583 9.25483 10.5718 9.25462C10.2854 9.25442 10.004 9.1839 9.75608 9.05017L2.40302 5.09475C3.52477 3.61733 4.98738 2.39285 6.68342 1.51122C8.37947 0.629591 10.2659 0.11321 12.2041 0V0Z" fill="#68C6E6"/>
<path d="M23.6842 5.19569L16.5204 9.05034C16.2727 9.18428 15.9915 9.25495 15.7051 9.25523C15.4187 9.25551 15.1373 9.18539 14.8893 9.05194C14.6413 8.91849 14.4355 8.72643 14.2926 8.49515C14.1497 8.26387 14.0748 8.00155 14.0754 7.73467V0.0169678C15.9882 0.164508 17.8421 0.705498 19.5037 1.60099C21.1652 2.49647 22.593 3.72417 23.6842 5.19569V5.19569Z" fill="white"/>
<path d="M12.213 16.3227V24.186C10.2517 24.0766 8.34265 23.5537 6.62977 22.6566C4.9169 21.7595 3.44492 20.5117 2.32483 19.0073L9.765 15.0071C10.0129 14.8733 10.2943 14.8028 10.5807 14.8026C10.8672 14.8024 11.1487 14.8725 11.3968 15.0059C11.645 15.1392 11.851 15.3312 11.9943 15.5623C12.1376 15.7935 12.213 16.0558 12.213 16.3227Z" fill="#68C6E6"/>
<path d="M23.7593 18.8982C22.6699 20.3943 21.2351 21.6443 19.5599 22.5564C17.8848 23.4685 16.0118 24.0196 14.0783 24.1693V16.3312C14.0764 16.064 14.1503 15.8011 14.2924 15.569C14.4345 15.337 14.6398 15.144 14.8876 15.0096C15.1354 14.8753 15.4169 14.8043 15.7036 14.8038C15.9903 14.8034 16.2721 14.8735 16.5204 15.0071L23.7593 18.8982Z" fill="#68C6E6"/>
</svg>
