<svg width="30" height="30" viewBox="0 0 30 30" fill="none" xmlns="http://www.w3.org/2000/svg">
<path fill-rule="evenodd" clip-rule="evenodd" d="M16.635 17.625C16.86 17.91 17.13 18.2325 17.13 18.2325C18.7875 18.18 19.425 17.0925 19.425 17.0925C19.425 14.6775 18.345 12.72 18.345 12.72C17.265 11.91 16.2375 11.9325 16.2375 11.9325L16.1325 12.0525C17.4075 12.4425 18 13.005 18 13.005C17.22 12.5775 16.455 12.3675 15.7425 12.285C15.2025 12.225 14.685 12.24 14.2275 12.3C14.1882 12.3 14.1546 12.3057 14.1168 12.3122L14.1 12.315C13.8375 12.3375 13.2 12.435 12.3975 12.7875C12.12 12.915 11.955 13.005 11.955 13.005C11.955 13.005 12.5775 12.4125 13.9275 12.0225L13.8525 11.9325C13.8525 11.9325 12.825 11.91 11.745 12.72C11.745 12.72 10.665 14.6775 10.665 17.0925C10.665 17.0925 11.295 18.18 12.9525 18.2325C12.9525 18.2325 13.23 17.895 13.455 17.61C12.5025 17.325 12.1425 16.725 12.1425 16.725C12.1425 16.725 12.2175 16.7775 12.3525 16.8525C12.36 16.86 12.3675 16.8675 12.3825 16.875C12.3938 16.8825 12.405 16.8881 12.4163 16.8938C12.4275 16.8994 12.4388 16.905 12.45 16.9125C12.6375 17.0175 12.825 17.1 12.9975 17.1675C13.305 17.2875 13.6725 17.4075 14.1 17.49C14.6625 17.595 15.3225 17.6325 16.0425 17.4975C16.395 17.4375 16.755 17.3325 17.13 17.175C17.3925 17.0775 17.685 16.935 17.9925 16.7325C17.9925 16.7325 17.6175 17.3475 16.635 17.625ZM12.8775 15.5625C12.8775 15.105 13.215 14.73 13.6425 14.73C14.07 14.73 14.415 15.105 14.4075 15.5625C14.4075 16.02 14.07 16.395 13.6425 16.395C13.2225 16.395 12.8775 16.02 12.8775 15.5625ZM15.615 15.5625C15.615 15.105 15.9525 14.73 16.38 14.73C16.8075 14.73 17.145 15.105 17.145 15.5625C17.145 16.02 16.8075 16.395 16.38 16.395C15.96 16.395 15.615 16.02 15.615 15.5625Z" fill="#2F2B5F"/>
<path fill-rule="evenodd" clip-rule="evenodd" d="M25.3125 0C27.9013 0 30 2.09867 30 4.6875V25.3125C30 27.9013 27.9013 30 25.3125 30H4.6875C2.09867 30 0 27.9013 0 25.3125V4.6875C0 2.09867 2.09867 0 4.6875 0H25.3125ZM9.975 8.4375H20.025C20.8725 8.4375 21.5625 9.1275 21.5625 9.9825V23.4375L19.95 22.0125L19.0425 21.1725L18.0825 20.28L18.48 21.6675H9.975C9.1275 21.6675 8.4375 20.9775 8.4375 20.1225V9.9825C8.4375 9.1275 9.1275 8.4375 9.975 8.4375Z" fill="#2F2B5F"/>
</svg>
