<svg width="17" height="22" viewBox="0 0 17 22" fill="none" xmlns="http://www.w3.org/2000/svg">
<path d="M16.534 4.24549C16.8062 4.37632 16.9805 4.65349 16.9825 4.95876V9.14515C16.9343 12.9674 15.148 16.5534 12.1417 18.8629L9.46863 21.0068C9.11684 21.2866 8.62192 21.2866 8.27013 21.0068L5.5971 18.8629C2.59075 16.5533 0.804458 12.9674 0.75631 9.14515V4.95876C0.758301 4.65349 0.932565 4.37637 1.20476 4.24549L8.14371 0.83527C8.60211 0.610757 9.13665 0.610757 9.595 0.83527L16.534 4.24549Z" fill="#24AE5F"/>
<path d="M8.86861 13.4534C11.109 13.4534 12.9251 11.6215 12.9251 9.36173C12.9251 7.10196 11.109 5.27006 8.86861 5.27006C6.62825 5.27006 4.81209 7.10196 4.81209 9.36173C4.81209 11.6215 6.62825 13.4534 8.86861 13.4534Z" fill="white"/>
<path d="M8.13145 11.1286C8.01187 11.1288 7.89719 11.0806 7.81279 10.9949L7.07504 10.2475C6.89904 10.0691 6.89904 9.78001 7.07504 9.60169C7.25104 9.42337 7.53641 9.42337 7.71241 9.60169L8.13145 10.0262L10.0255 8.10728C10.2017 7.93052 10.4858 7.93119 10.6612 8.10888C10.8366 8.28658 10.8373 8.57441 10.6628 8.75299L8.45016 10.9948C8.3657 11.0806 8.25103 11.1288 8.13145 11.1286Z" fill="#24AE5F"/>
</svg>
