<svg width="83" height="63" viewBox="0 0 83 63" fill="none" xmlns="http://www.w3.org/2000/svg">
<g clip-path="url(#clip0_2_2272)">
<path d="M24.3232 40.5178V58.3621H57.5399V40.5178H24.3232Z" fill="#46508C"/>
<path d="M51.3121 54.3969H57.5402C58.6868 54.3969 59.6162 55.2845 59.6162 56.3795V58.3622H49.236V56.3795C49.236 55.2845 50.1654 54.3969 51.3121 54.3969Z" fill="#A7C6CB"/>
<path d="M37.8179 54.3969H44.046C45.1927 54.3969 46.1221 55.2845 46.1221 56.3795V58.3622H35.7419V56.3795C35.7419 55.2845 36.6713 54.3969 37.8179 54.3969Z" fill="#A7C6CB"/>
<path d="M24.3238 54.3969H30.5519C31.6985 54.3969 32.6279 55.2845 32.6279 56.3795V58.3622H22.2477V56.3795C22.2477 55.2845 23.1771 54.3969 24.3238 54.3969Z" fill="#A7C6CB"/>
<path d="M22.2475 58.3621H59.6162V60.3448C59.6162 61.4398 58.6868 62.3275 57.5402 62.3275H24.3235C23.1769 62.3275 22.2475 61.4398 22.2475 60.3448V58.3621Z" fill="#E1E9FF"/>
<path d="M51.3115 44.4834V54.3969H57.5396V44.4834H51.3115Z" fill="#E1E9FF"/>
<path d="M37.8174 44.4834V54.3969H44.0455V44.4834H37.8174Z" fill="#E1E9FF"/>
<path d="M24.3232 44.4834V54.3969H30.5514V44.4834H24.3232Z" fill="#E1E9FF"/>
<path d="M40.9319 24.6562C42.2795 24.6562 43.5906 25.0737 44.6687 25.8459L58.7858 35.9576C59.3086 36.3321 59.6162 36.9197 59.6162 37.5438V40.5178H22.2475V37.5438C22.2475 36.9197 22.5551 36.3321 23.0779 35.9576L37.195 25.8459C38.2731 25.0737 39.5842 24.6562 40.9319 24.6562Z" fill="#A7C6CB"/>
<path d="M42.8002 28.2252L52.7652 35.3629C52.9395 35.4877 53.042 35.6836 53.042 35.8917C53.042 36.2566 52.7321 36.5525 52.35 36.5525H29.5136C29.1313 36.5525 28.8216 36.2566 28.8216 35.8917C28.8216 35.6836 28.9241 35.4878 29.0984 35.3629L39.0634 28.2252C39.6024 27.8391 40.258 27.6304 40.9318 27.6304C41.6056 27.6304 42.2612 27.8391 42.8002 28.2252Z" fill="#E1E9FF"/>
<path d="M51.3121 44.4833H57.5402C58.6868 44.4833 59.6162 43.5957 59.6162 42.5006V40.5179H49.236V42.5006C49.236 43.5957 50.1654 44.4833 51.3121 44.4833Z" fill="#E1E9FF"/>
<path d="M37.8179 44.4833H44.046C45.1927 44.4833 46.1221 43.5957 46.1221 42.5006V40.5179H35.7419V42.5006C35.7419 43.5957 36.6713 44.4833 37.8179 44.4833Z" fill="#E1E9FF"/>
<path d="M24.3238 44.4833H30.5519C31.6985 44.4833 32.6279 43.5957 32.6279 42.5006V40.5179H22.2477V42.5006C22.2477 43.5957 23.1771 44.4833 24.3238 44.4833Z" fill="#E1E9FF"/>
<path d="M54.426 54.3967H57.54V46.4659H56.502C55.3554 46.4659 54.426 47.3536 54.426 48.4486V54.3967Z" fill="#A7C6CB"/>
<path d="M40.9318 54.3967H44.0459V46.4659H43.0079C41.8613 46.4659 40.9318 47.3536 40.9318 48.4486V54.3967Z" fill="#A7C6CB"/>
<path d="M27.4377 54.3967H30.5518V46.4659H29.5137C28.3671 46.4659 27.4377 47.3536 27.4377 48.4486V54.3967Z" fill="#A7C6CB"/>
</g>
<g clip-path="url(#clip1_2_2272)">
<path d="M20.1429 10.5031C20.8561 10.5005 22.4154 10.4947 22.3974 9.50295C22.3801 8.4887 20.8824 8.54969 20.1526 8.57986C20.071 8.58307 19.9985 8.58628 19.9395 8.58692L19.9728 10.5043C20.021 10.5031 20.0788 10.5031 20.1429 10.5031Z" fill="#6AD0F2"/>
<path d="M20.0669 7.70875C20.6619 7.70811 21.9606 7.70682 21.9452 6.80491C21.9285 5.88246 20.6812 5.93703 20.072 5.96399C20.0033 5.9672 19.9436 5.96976 19.8936 5.97041L19.9237 7.70939L20.0669 7.70875Z" fill="#6AD0F2"/>
<path fill-rule="evenodd" clip-rule="evenodd" d="M18.6744 15.8735C22.802 16.9025 26.9823 14.3907 28.0113 10.2644C29.0403 6.13739 26.5278 1.95715 22.4002 0.928775C18.2751 -0.100879 14.0949 2.41163 13.0665 6.53924C12.0375 10.6656 14.5494 14.8458 18.675 15.8742L18.6744 15.8735ZM21.4231 4.94789C22.5491 5.02749 23.4452 5.35744 23.5627 6.3871C23.65 7.14072 23.3419 7.5997 22.8418 7.86546C23.6763 8.05034 24.2059 8.53499 24.1225 9.64425C24.0191 11.0212 23.0004 11.4083 21.5381 11.5174L21.5624 12.9617L20.692 12.9778L20.667 11.5527C20.4416 11.5566 20.2105 11.5591 19.9711 11.5578L19.9968 12.9893L19.1263 13.0047L19.1006 11.5578L18.8548 11.5598C18.7303 11.5604 18.6044 11.561 18.4786 11.5636L17.345 11.5829L17.4997 10.5404C17.4997 10.5404 18.1442 10.5391 18.1326 10.5295C18.3791 10.5243 18.4414 10.3465 18.4549 10.2348L18.4157 7.95148L18.478 7.9502H18.5075C18.4768 7.94668 18.4459 7.94518 18.4151 7.9457L18.3868 6.3152C18.3502 6.13931 18.2321 5.93646 17.8797 5.94288C17.8893 5.93005 17.2468 5.9538 17.2468 5.9538L17.2301 5.02428L18.4318 5.00374V5.00824C18.6121 5.00503 18.7977 4.99861 18.9857 4.99155L18.9613 3.56068L19.8318 3.54592L19.8562 4.94789C20.0886 4.93955 20.3222 4.93056 20.5514 4.92671L20.527 3.53372L21.3981 3.51832L21.4231 4.94918V4.94789Z" fill="#6AD0F2"/>
</g>
<g clip-path="url(#clip2_2_2272)" filter="url(#filter0_d_2_2272)">
<path d="M33.4795 0.697519C37.7341 0.697519 41.1827 4.14612 41.1827 8.40067C41.1827 12.6552 37.7341 16.1038 33.4795 16.1038C29.225 16.1038 25.7764 12.6552 25.7764 8.40067C25.7753 7.22514 26.0437 6.06501 26.5611 5.00945C27.0785 3.9539 27.831 3.03104 28.7609 2.31181L28.8056 2.3667L28.926 2.51402C30.6322 4.6035 31.5143 5.6882 31.572 5.76764C31.6683 5.90148 31.6322 6.02136 31.4666 6.11572C31.3746 6.1682 31.1849 6.22116 31.0906 6.22116C30.9832 6.22116 30.8624 6.16964 30.7743 6.08635C30.7508 6.06118 30.7293 6.0343 30.7098 6.00595L30.6684 5.94866C30.5384 5.76378 30.2928 5.39018 29.8821 4.75371C29.6109 4.32888 29.3362 3.90631 29.0579 3.48606L29.0521 3.48124C29.0512 3.48124 29.0517 3.48317 29.0541 3.48895L29.0695 3.51976C29.1191 3.61509 29.2953 3.92995 29.8369 4.89959C30.3405 5.80086 30.5109 6.11909 30.5109 6.16194C30.5109 6.2486 30.4868 6.29386 30.38 6.41326C30.2018 6.61209 30.1224 6.83548 30.0646 7.29767C30.0001 7.81619 29.8191 8.18209 29.3164 8.80845C29.0228 9.17532 28.9746 9.24272 28.9 9.39052C28.8066 9.57636 28.7811 9.68084 28.7705 9.91578C28.7594 10.1642 28.7811 10.325 28.8571 10.5624C28.9236 10.7704 28.9929 10.908 29.1701 11.1825C29.3232 11.4198 29.4113 11.596 29.4113 11.6649C29.4113 11.7198 29.4219 11.7198 29.6592 11.6663C30.2269 11.5383 30.6876 11.3125 30.9471 11.0361C31.1074 10.8652 31.145 10.7708 31.1464 10.5364C31.1469 10.3833 31.1416 10.351 31.1002 10.2629C31.0328 10.1194 30.91 10 30.6395 9.81516C30.2846 9.57251 30.1335 9.37704 30.0916 9.10888C30.0569 8.88886 30.0969 8.73335 30.2933 8.32219C30.496 7.89659 30.5465 7.71557 30.5807 7.2866C30.6024 7.00929 30.6327 6.9 30.7126 6.81238C30.7955 6.7209 30.8706 6.68961 31.0761 6.66168C31.4112 6.61595 31.6245 6.52928 31.7998 6.368C31.9519 6.22742 32.0154 6.09213 32.0251 5.88896L32.0328 5.7349L31.9476 5.63572L31.9379 5.62417C31.7781 5.44122 30.7695 4.32859 28.9125 2.28678L28.8634 2.23333C30.1947 1.23401 31.8149 0.694944 33.4795 0.697519ZM33.5026 10.6731C33.2841 10.6173 32.8907 10.6018 32.6543 10.6404C32.106 10.7294 31.5046 11.0193 31.0208 11.4275L30.8768 11.5493L31.0034 11.5686C31.6635 11.6721 31.8412 11.7636 32.2995 12.2354C32.5628 12.5069 32.6519 12.5676 32.8705 12.623C33.1916 12.7048 33.5084 12.5546 33.6167 12.2681C33.6654 12.1401 33.6591 11.9277 33.6033 11.8213C33.4709 11.5681 33.0852 11.4863 32.8989 11.6721C32.7434 11.8262 32.7886 12.0592 32.9817 12.0996C33.026 12.1088 33.025 12.1068 32.9706 12.0823C32.8859 12.0438 32.8493 11.9908 32.8488 11.9066C32.8479 11.7092 33.0741 11.598 33.2845 11.6928C33.4386 11.7621 33.5002 11.8531 33.5002 12.0125C33.5008 12.0697 33.489 12.1264 33.4658 12.1787C33.4426 12.231 33.4083 12.2777 33.3655 12.3157C33.3226 12.3536 33.2721 12.3819 33.2173 12.3986C33.1626 12.4153 33.1049 12.4201 33.0481 12.4126C32.9055 12.3898 32.7742 12.3212 32.6741 12.2171C32.4598 11.9744 32.5431 11.5922 32.8426 11.4453C33.0703 11.3336 33.3731 11.3611 33.6081 11.5151C33.8777 11.6918 33.9927 11.8531 34.2253 12.3832C34.3009 12.556 34.3986 12.7501 34.4419 12.8151C34.6615 13.1448 34.9253 13.3061 35.2431 13.3061C35.4183 13.3061 35.5502 13.2744 35.7163 13.1915C35.8396 13.1299 36.0139 13.0134 36.0013 13.0004C35.9622 13.0074 35.924 13.0192 35.8877 13.0356C35.5411 13.1708 35.1882 13.1617 34.9836 13.0115C34.8545 12.9176 34.7505 12.7294 34.6971 12.4944C34.672 12.3616 34.6494 12.2284 34.6292 12.0948C34.558 11.6413 34.4896 11.4372 34.3302 11.2032C34.1665 10.9639 33.8536 10.7626 33.5026 10.6731ZM35.8338 8.28753C35.8242 8.28753 35.8078 8.3169 35.7977 8.35252C35.7028 8.68809 35.7423 9.04725 35.9156 9.41941L35.9469 9.48441C36.0269 9.64473 36.1308 9.80986 36.4428 10.2773C36.7466 10.7333 36.8973 11.0029 36.971 11.2239C37.0913 11.585 37.0735 11.9095 36.9142 12.2426C36.8761 12.3216 36.8511 12.3856 36.8578 12.3856C36.8646 12.3856 36.9267 12.3548 36.9965 12.3168C37.4702 12.0597 37.8029 11.6187 37.9459 11.0573C37.9912 10.8792 38.009 10.454 37.9786 10.2773C37.9247 9.96537 37.813 9.70924 37.632 9.48441C37.4259 9.22779 37.1226 9.00296 36.5906 8.71313C36.1646 8.48107 36.0047 8.39056 35.9248 8.33664C35.897 8.31587 35.8664 8.29932 35.8338 8.28753ZM29.2197 9.8946C29.2197 9.79927 29.3906 9.76461 29.5004 9.83779C29.6169 9.91482 29.6539 10.0737 29.5841 10.1969C29.5177 10.3149 29.3901 10.3539 29.3001 10.2836C29.2447 10.2398 29.2409 10.1753 29.2895 10.1021C29.3376 10.0299 29.3328 9.99474 29.2717 9.96345C29.2356 9.94467 29.2197 9.92349 29.2197 9.8946ZM35.2224 7.98325L35.2556 8.08291C35.282 8.17335 35.3029 8.26532 35.3182 8.3583C35.4226 8.97937 35.0967 9.48152 34.4622 9.67602C34.3948 9.69672 34.1304 9.74824 33.8748 9.79109C33.3558 9.87775 33.1247 9.93841 32.8922 10.0506C32.727 10.13 32.5277 10.2489 32.5393 10.261C32.5682 10.2595 32.5966 10.2526 32.623 10.2408C32.9162 10.1377 33.2427 10.0848 33.7381 10.0588C33.935 10.0487 34.1588 10.0323 34.2354 10.0227C34.6774 9.96682 34.9831 9.83297 35.2214 9.59032C35.3538 9.45552 35.4328 9.33034 35.4958 9.15317C35.5367 9.04051 35.542 8.99911 35.5425 8.79979C35.5425 8.5971 35.5377 8.56003 35.4944 8.43533C35.4366 8.27164 35.3692 8.14887 35.284 8.05306L35.2224 7.98374V7.98325ZM34.4795 6.18649C34.4747 6.18649 34.4708 6.27893 34.4708 6.39207C34.4708 7.16046 34.9301 7.61591 36.2329 8.14069C37.101 8.48974 37.4558 8.67028 37.7206 8.89752C37.9526 9.09732 38.0913 9.36404 38.1043 9.63751C38.1067 9.68902 38.1163 9.72609 38.126 9.7232C38.1616 9.71165 38.2945 9.41363 38.3383 9.24802C38.3937 9.03859 38.4134 8.64139 38.3797 8.42956C38.2622 7.70064 37.7702 7.16528 36.9748 6.90144C36.7245 6.81863 36.4529 6.76182 35.971 6.69105C35.1521 6.57165 34.856 6.48114 34.5917 6.2693C34.5563 6.2391 34.5188 6.21143 34.4795 6.18649ZM32.6481 6.78108C32.5508 6.73149 32.3443 6.71175 32.2441 6.74257C32.0867 6.79071 31.9341 6.95777 31.8864 7.13254C31.8575 7.23894 31.8739 7.42622 31.9172 7.48399C31.987 7.57739 32.0549 7.60195 32.2379 7.6005C32.5961 7.5981 32.9071 7.44452 32.9437 7.25242C32.9735 7.09499 32.8363 6.87689 32.6481 6.7806V6.78108ZM32.1507 6.99966C32.1507 6.83067 32.4213 6.73968 32.5999 6.84945C32.6938 6.90674 32.7184 6.99147 32.6625 7.06995C32.625 7.12387 32.507 7.17587 32.4208 7.17587C32.2918 7.17587 32.1507 7.08343 32.1507 6.99966ZM32.2191 3.49521C32.0174 3.44706 31.7246 3.42155 31.6009 3.44032C31.5364 3.44995 31.5422 3.45284 31.6794 3.47402C32.1801 3.55202 32.5705 3.75037 32.9687 4.12879C33.1435 4.29489 33.3197 4.50143 33.6042 4.87503C34.2455 5.71612 34.5175 5.95059 35.0572 6.1268C35.374 6.22983 35.6942 6.27797 36.2594 6.30782C36.8853 6.34104 37.1212 6.39111 37.3451 6.53891C37.4688 6.62076 37.5656 6.72283 37.6619 6.87208L37.7182 6.95874L37.7061 6.86341C37.6614 6.49751 37.3999 5.98236 37.0668 5.60539L37.0061 5.53654L36.9753 5.67472C36.8983 6.0228 36.7317 6.27267 36.5767 6.27316C36.5392 6.27288 36.5025 6.26209 36.4708 6.242C36.4392 6.22191 36.4138 6.19334 36.3976 6.15953C36.3634 6.07769 36.3663 6.04784 36.4168 5.95251C36.5107 5.77678 36.5338 5.54184 36.4876 5.23516C36.4746 5.14657 36.4549 5.06328 36.4443 5.05076C36.4106 5.00984 36.14 4.85241 35.9686 4.77345C35.3461 4.48554 34.6013 4.39214 33.8695 4.5101L33.6962 4.53802L33.5748 4.40273C33.1175 3.89384 32.6895 3.60738 32.2191 3.49521ZM36.7442 3.63338C36.7404 3.63338 36.7148 3.68249 36.6879 3.74219C36.6195 3.89288 36.5858 4.05802 36.5714 4.30837C36.5622 4.46966 36.5531 4.52502 36.5343 4.53176C36.5059 4.54284 36.4679 4.53128 36.2358 4.44221C36.0803 4.38203 35.6932 4.26889 35.6821 4.28045C35.6793 4.28334 35.7601 4.32281 35.8622 4.36807C35.9643 4.41333 36.1299 4.49902 36.23 4.55872C36.6272 4.79367 36.6946 4.9304 36.6951 5.50043C36.6951 5.78449 36.6917 5.82156 36.6566 5.90726C36.6094 6.02232 36.6181 6.04399 36.6696 5.9424C36.7659 5.75464 36.8063 5.56591 36.8121 5.27319C36.8155 5.08543 36.8212 5.04547 36.8477 5.01899C36.8766 4.9901 36.8838 4.9901 36.9305 5.01417C37.0003 5.0498 37.3157 5.30111 37.4534 5.42966L37.5656 5.5351L37.4534 5.38777C37.3918 5.30641 37.2213 5.11816 37.0745 4.96795C36.7625 4.64875 36.7375 4.60639 36.6941 4.31078C36.6604 4.07776 36.6681 3.87748 36.7182 3.7316C36.7313 3.7002 36.7401 3.66716 36.7442 3.63338ZM31.5436 3.73449L31.5321 3.87074C31.495 4.31078 31.6674 4.89959 31.9461 5.2833C32.1628 5.58083 32.4974 5.81193 32.7453 5.83456C32.9071 5.849 32.9557 5.79845 32.8825 5.69157C32.7805 5.5428 32.6553 5.31411 32.6225 5.2159C32.584 5.08409 32.5507 4.95078 32.5229 4.8163C32.4069 4.27467 32.2923 4.06331 32.0284 3.90299C31.8961 3.83103 31.7543 3.77819 31.6072 3.74604L31.5436 3.73449Z" fill="#6AD0F2"/>
</g>
<g filter="url(#filter1_d_2_2272)">
<g clip-path="url(#clip3_2_2272)">
<path d="M47.0613 0.69751C51.5623 0.69751 55.2106 4.14611 55.2106 8.40066C55.2106 12.6552 51.5623 16.1038 47.0613 16.1038C42.5604 16.1038 38.9121 12.6552 38.9121 8.40066C38.9121 4.14611 42.5604 0.69751 47.0613 0.69751ZM47.0613 3.58619L46.1451 4.09412L43.6489 5.4855L42.7321 5.99343V10.8079L43.6483 11.3158L46.168 12.7072L47.0843 13.2151L48.0005 12.7072L50.4744 11.3158L51.3906 10.8079V5.99343L50.4744 5.4855L47.9776 4.09412L47.0613 3.58619ZM47.0613 5.6179L49.5581 7.00928V9.79204L47.0613 11.1834L44.5646 9.79204V7.00928L47.0613 5.6179Z" fill="#6AD0F2"/>
</g>
</g>
<g filter="url(#filter2_d_2_2272)">
<path fill-rule="evenodd" clip-rule="evenodd" d="M59.449 16.1038C54.9481 16.1038 51.2998 12.6552 51.2998 8.40066C51.2998 4.14611 54.9481 0.69751 59.449 0.69751C63.95 0.69751 67.5983 4.14611 67.5983 8.40066C67.5983 12.6552 63.95 16.1038 59.449 16.1038ZM63.5206 8.5061L59.7027 2.6233L55.8838 8.50658L59.7027 10.6023L63.5206 8.5061ZM63.5237 9.17868L59.7027 11.2735L55.8838 9.17916L59.7027 14.1756L63.5237 9.17868Z" fill="#6AD0F2"/>
</g>
<path d="M78.444 17.5665H79.5774V5.34263C79.5774 4.66756 79.9605 4.12024 80.433 4.12024C80.9056 4.12024 81.2887 4.66756 81.2887 5.34263V17.5665H82.4221C82.7413 17.5665 83 17.9361 83 18.3921C83 18.6428 82.9202 18.8801 82.7831 19.0367L81.1949 20.8518C80.9787 21.099 80.71 21.2336 80.433 21.2336C80.1561 21.2336 79.8874 21.099 79.6711 20.8518L78.0829 19.0367C77.9458 18.8801 77.866 18.6428 77.866 18.3921C77.8661 17.9361 78.1248 17.5665 78.444 17.5665Z" fill="#4148E9"/>
<path d="M0.577859 17.5665H1.71125V5.34263C1.71125 4.66756 2.09436 4.12024 2.56689 4.12024C3.03941 4.12024 3.42252 4.66756 3.42252 5.34263V17.5665H4.55591C4.87507 17.5665 5.13379 17.9361 5.13379 18.3921C5.13379 18.6428 5.054 18.8801 4.91688 19.0367L3.32872 20.8518C3.11246 21.0989 2.84379 21.2336 2.56678 21.2336C2.28977 21.2336 2.0211 21.099 1.80484 20.8518L0.216673 19.0367C0.0795579 18.8801 -0.000231743 18.6428 -0.000231743 18.3921C-1.7643e-05 17.9361 0.258708 17.5665 0.577859 17.5665Z" fill="#4148E9"/>
<defs>
<filter id="filter0_d_2_2272" x="24.5439" y="0.69751" width="17.8713" height="17.8713" filterUnits="userSpaceOnUse" color-interpolation-filters="sRGB">
<feFlood flood-opacity="0" result="BackgroundImageFix"/>
<feColorMatrix in="SourceAlpha" type="matrix" values="0 0 0 0 0 0 0 0 0 0 0 0 0 0 0 0 0 0 127 0" result="hardAlpha"/>
<feOffset dy="1.2325"/>
<feGaussianBlur stdDeviation="0.616252"/>
<feColorMatrix type="matrix" values="0 0 0 0 0 0 0 0 0 0 0 0 0 0 0 0 0 0 0.25 0"/>
<feBlend mode="normal" in2="BackgroundImageFix" result="effect1_dropShadow_2_2272"/>
<feBlend mode="normal" in="SourceGraphic" in2="effect1_dropShadow_2_2272" result="shape"/>
</filter>
<filter id="filter1_d_2_2272" x="37.6796" y="0.69751" width="18.7638" height="17.8713" filterUnits="userSpaceOnUse" color-interpolation-filters="sRGB">
<feFlood flood-opacity="0" result="BackgroundImageFix"/>
<feColorMatrix in="SourceAlpha" type="matrix" values="0 0 0 0 0 0 0 0 0 0 0 0 0 0 0 0 0 0 127 0" result="hardAlpha"/>
<feOffset dy="1.2325"/>
<feGaussianBlur stdDeviation="0.616252"/>
<feColorMatrix type="matrix" values="0 0 0 0 0 0 0 0 0 0 0 0 0 0 0 0 0 0 0.25 0"/>
<feBlend mode="normal" in2="BackgroundImageFix" result="effect1_dropShadow_2_2272"/>
<feBlend mode="normal" in="SourceGraphic" in2="effect1_dropShadow_2_2272" result="shape"/>
</filter>
<filter id="filter2_d_2_2272" x="50.0673" y="0.69751" width="18.7638" height="17.8713" filterUnits="userSpaceOnUse" color-interpolation-filters="sRGB">
<feFlood flood-opacity="0" result="BackgroundImageFix"/>
<feColorMatrix in="SourceAlpha" type="matrix" values="0 0 0 0 0 0 0 0 0 0 0 0 0 0 0 0 0 0 127 0" result="hardAlpha"/>
<feOffset dy="1.2325"/>
<feGaussianBlur stdDeviation="0.616252"/>
<feColorMatrix type="matrix" values="0 0 0 0 0 0 0 0 0 0 0 0 0 0 0 0 0 0 0.25 0"/>
<feBlend mode="normal" in2="BackgroundImageFix" result="effect1_dropShadow_2_2272"/>
<feBlend mode="normal" in="SourceGraphic" in2="effect1_dropShadow_2_2272" result="shape"/>
</filter>
<clipPath id="clip0_2_2272">
<rect width="36.7938" height="37.6495" fill="white" transform="matrix(-1 0 0 1 59.041 24.6562)"/>
</clipPath>
<clipPath id="clip1_2_2272">
<rect width="15.4063" height="15.4063" fill="white" transform="translate(12.835 0.69751)"/>
</clipPath>
<clipPath id="clip2_2_2272">
<rect width="15.4063" height="15.4063" fill="white" transform="translate(25.7764 0.69751)"/>
</clipPath>
<clipPath id="clip3_2_2272">
<rect width="16.2985" height="15.4063" fill="white" transform="translate(38.9121 0.69751)"/>
</clipPath>
</defs>
</svg>
