<svg width="107" height="65" viewBox="0 0 107 65" fill="none" xmlns="http://www.w3.org/2000/svg">
<path d="M101.67 46.6871V45H105V46.6871C104.997 49.0683 103.356 50.9977 101.33 51H98C100.025 50.9977 101.667 49.0683 101.67 46.6871V46.6871Z" fill="#D4E1F4"/>
<path d="M98 11H101.33C103.356 11.0027 104.997 12.6995 105 14.7931V44H101.67V14.7931C101.667 12.6995 100.025 11.0027 98 11Z" fill="#D4E1F4"/>
<path d="M62.9997 62.9297H73.5882V52.7533H70.2367V53.4551C70.2367 54.0072 69.7887 54.4551 69.2367 54.4551H66.0583C65.5055 54.4551 65.0583 54.0072 65.0583 53.4551V48.6048C65.7393 48.3958 66.4072 48.1465 67.0583 47.8568V52.4551H68.2367V10H67.0583V15.5579C66.4079 15.2669 65.7399 15.0169 65.0583 14.8099V9C65.0583 8.44727 65.5055 8 66.0583 8H69.2367C69.7887 8 70.2367 8.44727 70.2367 9V9.68815H100.547C103.678 9.69141 106.216 12.2298 106.22 15.3613V47.0801C106.216 50.2116 103.678 52.7493 100.547 52.7533H75.5882V62.9297H86.1761C86.7288 62.9297 87.1761 63.3776 87.1761 63.9297C87.1761 64.4824 86.7288 64.9297 86.1761 64.9297H62.9997C62.4476 64.9297 61.9997 64.4824 61.9997 63.9297C61.9997 63.3776 62.4476 62.9297 62.9997 62.9297ZM104.22 15.3613C104.218 13.3333 102.575 11.6901 100.547 11.6882H70.2367V43.6432H104.22V15.3613ZM100.547 50.7533C102.574 50.7506 104.217 49.1074 104.22 47.0801V45.6432H70.2367V50.7533H100.547Z" fill="#7374FF"/>
<g clip-path="url(#clip0_3:10782)">
<path d="M48.7067 20.4562C49.5399 20.4532 51.3617 20.4465 51.3407 19.2877C51.3204 18.1027 49.5707 18.174 48.7179 18.2092C48.6227 18.213 48.5379 18.2167 48.4689 18.2175L48.5079 20.4577C48.5642 20.4562 48.6317 20.4562 48.7067 20.4562V20.4562Z" fill="#6AD0F2"/>
<path d="M48.6187 17.1914C49.3139 17.1907 50.8312 17.1892 50.8132 16.1354C50.7937 15.0577 49.3364 15.1214 48.6247 15.1529C48.5444 15.1567 48.4747 15.1597 48.4162 15.1604L48.4514 17.1922L48.6187 17.1914Z" fill="#6AD0F2"/>
<path fill-rule="evenodd" clip-rule="evenodd" d="M46.9902 26.7309C51.8127 27.9331 56.6967 24.9984 57.8989 20.1774C59.1012 15.3556 56.1657 10.4716 51.3432 9.27012C46.5237 8.06712 41.6397 11.0026 40.4382 15.8251C39.2359 20.6461 42.1707 25.5301 46.9909 26.7316L46.9902 26.7309ZM50.2017 13.9659C51.5172 14.0589 52.5642 14.4444 52.7014 15.6474C52.8034 16.5279 52.4434 17.0641 51.8592 17.3746C52.8342 17.5906 53.4529 18.1569 53.3554 19.4529C53.2347 21.0616 52.0444 21.5139 50.3359 21.6414L50.3644 23.3289L49.3474 23.3476L49.3182 21.6826C49.0549 21.6871 48.7849 21.6901 48.5052 21.6886L48.5352 23.3611L47.5182 23.3791L47.4882 21.6886L47.2009 21.6909C47.0554 21.6916 46.9084 21.6924 46.7614 21.6954L45.4369 21.7179L45.6177 20.4999C45.6177 20.4999 46.3707 20.4984 46.3572 20.4871C46.6452 20.4811 46.7179 20.2734 46.7337 20.1429L46.6879 17.4751L46.7607 17.4736H46.7952C46.7593 17.4695 46.7232 17.4678 46.6872 17.4684L46.6542 15.5634C46.6114 15.3579 46.4734 15.1209 46.0617 15.1284C46.0729 15.1134 45.3222 15.1411 45.3222 15.1411L45.3027 14.0551L46.7067 14.0311V14.0364C46.9174 14.0326 47.1342 14.0251 47.3539 14.0169L47.3254 12.3451L48.3424 12.3279L48.3709 13.9659C48.6424 13.9561 48.9154 13.9456 49.1832 13.9411L49.1547 12.3136L50.1724 12.2956L50.2017 13.9674V13.9659Z" fill="#6AD0F2"/>
</g>
<path fill-rule="evenodd" clip-rule="evenodd" d="M49 52.6431C44.0292 52.6431 40 48.6139 40 43.6431C40 38.6723 44.0292 34.6431 49 34.6431C53.9708 34.6431 58 38.6723 58 43.6431C58 48.6139 53.9708 52.6431 49 52.6431ZM53.4966 43.7663L49.2801 36.8931L45.0625 43.7668L49.2801 46.2154L53.4966 43.7663ZM53.5 44.5521L49.2801 46.9995L45.0625 44.5526L49.2801 50.3903L53.5 44.5521Z" fill="#6AD0F2"/>
<path d="M33.2197 8.44588C32.945 8.74532 32.5411 8.86449 32.1607 8.75814C31.781 8.65179 31.4835 8.33651 31.3842 7.93223C31.2841 7.52871 31.3962 7.09878 31.678 6.80764L32.8634 5.54803H23.3528C22.7502 5.54803 22.2626 5.0291 22.2626 4.38949C22.2626 3.74913 22.7502 3.23096 23.3528 3.23096H32.8634L31.678 1.9706C31.2578 1.51729 31.2607 0.788679 31.6837 0.339142C32.1075 -0.110394 32.7924 -0.113411 33.2197 0.332354L36.2662 3.57037C36.692 4.02217 36.692 4.75606 36.2662 5.20862L33.2197 8.44588Z" fill="#1AE5BE"/>
<path d="M14.0045 5.54803H13.8697C13.2678 5.54803 12.7794 5.0291 12.7794 4.38949C12.7794 3.74913 13.2678 3.23096 13.8697 3.23096H14.0045C14.6064 3.23096 15.0948 3.74913 15.0948 4.38949C15.0948 5.0291 14.6064 5.54803 14.0045 5.54803Z" fill="#1AE5BE"/>
<path d="M16.4959 5.54803H16.4079C15.806 5.54803 15.3177 5.0291 15.3177 4.38949C15.3177 3.74913 15.806 3.23096 16.4079 3.23096H16.4959C17.0986 3.23096 17.5862 3.74913 17.5862 4.38949C17.5862 5.0291 17.0986 5.54803 16.4959 5.54803Z" fill="#1AE5BE"/>
<path d="M19.9799 5.54803H19.9387C19.3368 5.54803 18.8485 5.0291 18.8485 4.38949C18.8485 3.74913 19.3368 3.23096 19.9387 3.23096H19.9799C20.5825 3.23096 21.0701 3.74913 21.0701 4.38949C21.0701 5.0291 20.5825 5.54803 19.9799 5.54803Z" fill="#1AE5BE"/>
<path d="M9.19082 56.1616H9.32497C9.92688 56.1616 10.4152 56.6798 10.4152 57.3202C10.4152 57.9598 9.92688 58.4787 9.32497 58.4787H9.19082C8.58821 58.4787 8.10058 57.9598 8.10058 57.3202C8.10058 56.6798 8.58821 56.1616 9.19082 56.1616Z" fill="#1AE5BE"/>
<path d="M11.7274 56.1616H11.8155C12.4174 56.1616 12.9057 56.6798 12.9057 57.3202C12.9057 57.9598 12.4174 58.4787 11.8155 58.4787H11.7274C11.1248 58.4787 10.6372 57.9598 10.6372 57.3202C10.6372 56.6798 11.1248 56.1616 11.7274 56.1616Z" fill="#1AE5BE"/>
<path d="M15.2591 56.1616H15.3003C15.9022 56.1616 16.3906 56.6798 16.3906 57.3202C16.3906 57.9598 15.9022 58.4787 15.3003 58.4787H15.2591C14.6565 58.4787 14.1689 57.9598 14.1689 57.3202C14.1689 56.6798 14.6565 56.1616 15.2591 56.1616Z" fill="#1AE5BE"/>
<path d="M18.6727 56.1616H34.2768L33.0915 54.9012C32.6656 54.4494 32.6656 53.7156 33.0915 53.263C33.5174 52.8104 34.2073 52.8104 34.6332 53.263L37.6796 56.501C38.1055 56.9528 38.1055 57.6867 37.6796 58.1393L34.6332 61.3765C34.3585 61.6729 33.9546 61.7906 33.5763 61.6842C33.198 61.5771 32.902 61.2634 32.8019 60.8606C32.7018 60.4586 32.8118 60.0302 33.0908 59.7383L34.2768 58.4787H18.6727C18.0708 58.4787 17.5824 57.9597 17.5824 57.3201C17.5824 56.6798 18.0708 56.1616 18.6727 56.1616V56.1616Z" fill="#1AE5BE"/>
<path d="M15.4426 22.8522L12.3961 26.0894C11.9702 26.542 11.2796 26.542 10.8537 26.0894C10.4278 25.6369 10.4278 24.9037 10.8537 24.4512L12.0398 23.1916H9.84084C9.23894 23.1916 8.7506 22.6726 8.7506 22.033C8.7506 21.3927 9.23894 20.8745 9.84084 20.8745H12.0398L10.8537 19.6141C10.4278 19.1616 10.4278 18.4284 10.8537 17.9759C11.2796 17.5233 11.9702 17.5233 12.3961 17.9759L15.4426 21.2139C15.8684 21.6657 15.8684 22.3996 15.4426 22.8522V22.8522Z" fill="#1AE5BE"/>
<path d="M1.08981 20.8745H1.22396C1.82658 20.8745 2.31421 21.3927 2.31421 22.033C2.31421 22.6727 1.82658 23.1916 1.22396 23.1916H1.08981C0.487902 23.1916 -0.000437589 22.6727 -0.000437589 22.033C-0.000437589 21.3927 0.487902 20.8745 1.08981 20.8745Z" fill="#1AE5BE"/>
<path d="M3.62649 20.8745H3.7145C4.31712 20.8745 4.80475 21.3927 4.80475 22.033C4.80475 22.6727 4.31712 23.1916 3.7145 23.1916H3.62649C3.02458 23.1916 2.53624 22.6727 2.53624 22.033C2.53624 21.3927 3.02458 20.8745 3.62649 20.8745Z" fill="#1AE5BE"/>
<path d="M7.15834 20.8745H7.20022C7.80213 20.8745 8.29047 21.3927 8.29047 22.033C8.29047 22.6727 7.80213 23.1916 7.20022 23.1916H7.15834C6.55644 23.1916 6.0681 22.6727 6.0681 22.033C6.0681 21.3927 6.55644 20.8745 7.15834 20.8745Z" fill="#1AE5BE"/>
<path d="M1.60097 40.5181H1.68898C2.29089 40.5181 2.77924 41.0362 2.77924 41.6766C2.77924 42.3162 2.29089 42.8351 1.68898 42.8351H1.60026C0.99835 42.8351 0.510008 42.3162 0.510008 41.6766C0.510008 41.0362 0.99835 40.5181 1.60026 40.5181H1.60097Z" fill="#1AE5BE"/>
<path d="M5.13268 40.5181H5.17385C5.77647 40.5181 6.2641 41.0362 6.2641 41.6766C6.2641 42.3162 5.77647 42.8351 5.17385 42.8351H5.13268C4.53077 42.8351 4.04243 42.3162 4.04243 41.6766C4.04243 41.0362 4.53077 40.5181 5.13268 40.5181Z" fill="#1AE5BE"/>
<path d="M7.81536 40.518H14.4981L13.3127 39.2577C12.8869 38.8051 12.8869 38.072 13.3127 37.6194C13.7386 37.1669 14.4285 37.1669 14.8544 37.6194L17.9009 40.8575C18.3267 41.3093 18.3267 42.0431 17.9009 42.4957L14.8544 45.733C14.4285 46.1855 13.7386 46.1855 13.3127 45.733C12.8869 45.2804 12.8869 44.5473 13.3127 44.0947L14.4981 42.8351H7.81536C7.21274 42.8351 6.72511 42.3162 6.72511 41.6766C6.72511 41.0362 7.21274 40.518 7.81536 40.518Z" fill="#1AE5BE"/>
<defs>
<clipPath id="clip0_3:10782">
<rect width="18" height="18" fill="white" transform="translate(40.168 9)"/>
</clipPath>
</defs>
</svg>
