<svg width="62" height="62" viewBox="0 0 62 62" fill="none" xmlns="http://www.w3.org/2000/svg">
<path d="M8.3125 60.9062C12.2993 60.9062 15.5312 57.6743 15.5312 53.6875C15.5312 49.7007 12.2993 46.4688 8.3125 46.4688C4.32569 46.4688 1.09375 49.7007 1.09375 53.6875C1.09375 57.6743 4.32569 60.9062 8.3125 60.9062Z" fill="#6AD0F2"/>
<path d="M53.6875 60.9062C57.6743 60.9062 60.9062 57.6743 60.9062 53.6875C60.9062 49.7007 57.6743 46.4688 53.6875 46.4688C49.7007 46.4688 46.4688 49.7007 46.4688 53.6875C46.4688 57.6743 49.7007 60.9062 53.6875 60.9062Z" fill="#6AD0F2"/>
<path d="M53.6875 15.5312C57.6743 15.5312 60.9062 12.2993 60.9062 8.3125C60.9062 4.32569 57.6743 1.09375 53.6875 1.09375C49.7007 1.09375 46.4688 4.32569 46.4688 8.3125C46.4688 12.2993 49.7007 15.5312 53.6875 15.5312Z" fill="#6AD0F2"/>
<path d="M8.3125 15.5312C12.2993 15.5312 15.5312 12.2993 15.5312 8.3125C15.5312 4.32569 12.2993 1.09375 8.3125 1.09375C4.32569 1.09375 1.09375 4.32569 1.09375 8.3125C1.09375 12.2993 4.32569 15.5312 8.3125 15.5312Z" fill="#6AD0F2"/>
<path d="M31 41.3125C36.6954 41.3125 41.3125 36.6954 41.3125 31C41.3125 25.3046 36.6954 20.6875 31 20.6875C25.3046 20.6875 20.6875 25.3046 20.6875 31C20.6875 36.6954 25.3046 41.3125 31 41.3125Z" fill="#6AD0F2"/>
<path d="M31 19.6562C28.7564 19.6562 26.5632 20.3215 24.6977 21.568C22.8323 22.8145 21.3783 24.5861 20.5197 26.6589C19.6611 28.7317 19.4365 31.0126 19.8742 33.2131C20.3119 35.4135 21.3923 37.4348 22.9787 39.0212C24.5652 40.6077 26.5864 41.6881 28.7869 42.1258C30.9874 42.5635 33.2682 42.3388 35.341 41.4803C37.4138 40.6217 39.1855 39.1677 40.432 37.3022C41.6784 35.4368 42.3437 33.2436 42.3437 31C42.3418 27.992 41.1461 25.1078 39.0191 22.9809C36.8922 20.8539 34.0079 19.6582 31 19.6562ZM31 40.2813C29.1643 40.2813 27.3699 39.7369 25.8436 38.7171C24.3173 37.6972 23.1277 36.2477 22.4252 34.5518C21.7227 32.8559 21.5389 30.9897 21.8971 29.1893C22.2552 27.3889 23.1391 25.7352 24.4371 24.4372C25.7351 23.1392 27.3889 22.2552 29.1893 21.8971C30.9897 21.539 32.8558 21.7228 34.5518 22.4252C36.2477 23.1277 37.6972 24.3173 38.7171 25.8436C39.7369 27.3699 40.2812 29.1643 40.2812 31C40.2774 33.4604 39.2983 35.8189 37.5586 37.5586C35.8188 39.2984 33.4603 40.2774 31 40.2813Z" fill="#7374FF"/>
<path d="M50.5938 25.8438H45.5819C45.3962 25.3281 45.19 24.8228 44.9631 24.3278L48.5003 20.7906C48.5964 20.6946 48.6723 20.5804 48.7236 20.4547C48.775 20.3289 48.8007 20.1942 48.7994 20.0584C48.8007 19.9242 48.7749 19.791 48.7235 19.667C48.6721 19.5429 48.5962 19.4306 48.5003 19.3366L42.6634 13.4997C42.4684 13.311 42.2077 13.2056 41.9364 13.2056C41.6651 13.2056 41.4044 13.311 41.2094 13.4997L37.6722 17.0369C37.1772 16.81 36.6719 16.6038 36.1562 16.4181V11.4062C36.1562 11.1327 36.0476 10.8704 35.8542 10.677C35.6608 10.4836 35.3985 10.375 35.125 10.375H26.875C26.6015 10.375 26.3392 10.4836 26.1458 10.677C25.9524 10.8704 25.8438 11.1327 25.8438 11.4062V16.4181C25.3281 16.6038 24.8228 16.81 24.3278 17.0369L20.7906 13.4997C20.6946 13.4036 20.5804 13.3277 20.4547 13.2764C20.3289 13.225 20.1942 13.1993 20.0584 13.2006C19.9242 13.1993 19.791 13.2251 19.667 13.2765C19.5429 13.3279 19.4306 13.4038 19.3366 13.4997L13.4997 19.3366C13.4038 19.4306 13.3279 19.5429 13.2765 19.667C13.2251 19.791 13.1993 19.9242 13.2006 20.0584C13.1993 20.1942 13.225 20.3289 13.2764 20.4547C13.3277 20.5804 13.4036 20.6946 13.4997 20.7906L17.0369 24.3278C16.81 24.8228 16.6038 25.3281 16.4181 25.8438H11.4062C11.1327 25.8438 10.8704 25.9524 10.677 26.1458C10.4836 26.3392 10.375 26.6015 10.375 26.875V35.125C10.375 35.3985 10.4836 35.6608 10.677 35.8542C10.8704 36.0476 11.1327 36.1562 11.4062 36.1562H16.4181C16.6038 36.6719 16.81 37.1772 17.0369 37.6722L13.4997 41.2094C13.4036 41.3054 13.3277 41.4196 13.2764 41.5453C13.225 41.6711 13.1993 41.8058 13.2006 41.9416C13.1993 42.0758 13.2251 42.209 13.2765 42.333C13.3279 42.4571 13.4038 42.5694 13.4997 42.6634L19.3366 48.5003C19.5316 48.689 19.7923 48.7944 20.0636 48.7944C20.3349 48.7944 20.5956 48.689 20.7906 48.5003L24.3278 44.9631C24.8228 45.19 25.3281 45.3962 25.8438 45.5819V50.5938C25.8438 50.8673 25.9524 51.1296 26.1458 51.323C26.3392 51.5163 26.6015 51.625 26.875 51.625H35.125C35.3985 51.625 35.6608 51.5163 35.8542 51.323C36.0476 51.1296 36.1562 50.8673 36.1562 50.5938V45.5819C36.6719 45.3962 37.1772 45.19 37.6722 44.9631L41.2094 48.5003C41.3054 48.5964 41.4196 48.6723 41.5453 48.7236C41.6711 48.775 41.8058 48.8007 41.9416 48.7994C42.0758 48.8007 42.209 48.7749 42.333 48.7235C42.4571 48.6721 42.5694 48.5962 42.6634 48.5003L48.5003 42.6634C48.5962 42.5694 48.6721 42.4571 48.7235 42.333C48.7749 42.209 48.8007 42.0758 48.7994 41.9416C48.8007 41.8058 48.775 41.6711 48.7236 41.5453C48.6723 41.4196 48.5964 41.3054 48.5003 41.2094L44.9631 37.6722C45.19 37.1772 45.3962 36.6719 45.5819 36.1562H50.5938C50.8673 36.1562 51.1296 36.0476 51.323 35.8542C51.5163 35.6608 51.625 35.3985 51.625 35.125V26.875C51.625 26.6015 51.5163 26.3392 51.323 26.1458C51.1296 25.9524 50.8673 25.8438 50.5938 25.8438ZM49.5625 34.0938H44.8291C44.6059 34.0938 44.3888 34.1661 44.2103 34.3C44.0318 34.4339 43.9015 34.622 43.8391 34.8363C43.5834 35.7166 43.2342 36.5671 42.7975 37.3731C42.6924 37.5697 42.6527 37.7947 42.6842 38.0154C42.7157 38.2361 42.8168 38.441 42.9728 38.6003L46.3141 41.9416L41.9416 46.3141L38.6003 42.9728C38.441 42.8168 38.2361 42.7157 38.0154 42.6842C37.7947 42.6527 37.5697 42.6924 37.3731 42.7975C36.5623 43.2317 35.7087 43.5808 34.8259 43.8391C34.6143 43.9045 34.4292 44.0359 34.2975 44.214C34.1658 44.3921 34.0944 44.6076 34.0938 44.8291V49.5625H27.9062V44.8291C27.9056 44.6076 27.8342 44.3921 27.7025 44.214C27.5708 44.0359 27.3857 43.9045 27.1741 43.8391C26.2913 43.5808 25.4377 43.2317 24.6269 42.7975C24.4303 42.6924 24.2053 42.6527 23.9846 42.6842C23.7639 42.7157 23.559 42.8168 23.3997 42.9728L20.0584 46.3141L15.6859 41.9416L19.0272 38.6003C19.1832 38.441 19.2843 38.2361 19.3158 38.0154C19.3473 37.7947 19.3076 37.5697 19.2025 37.3731C18.7658 36.5671 18.4166 35.7166 18.1609 34.8363C18.0985 34.622 17.9682 34.4339 17.7897 34.3C17.6112 34.1661 17.3941 34.0938 17.1709 34.0938H12.4375V27.9062H17.1709C17.3941 27.9062 17.6112 27.8339 17.7897 27.7C17.9682 27.5661 18.0985 27.378 18.1609 27.1638C18.4166 26.2834 18.7658 25.4329 19.2025 24.6269C19.3076 24.4303 19.3473 24.2053 19.3158 23.9846C19.2843 23.7639 19.1832 23.559 19.0272 23.3997L15.6859 20.0584L20.0584 15.6859L23.3997 19.0272C23.559 19.1832 23.7639 19.2843 23.9846 19.3158C24.2053 19.3473 24.4303 19.3076 24.6269 19.2025C25.4377 18.7683 26.2913 18.4192 27.1741 18.1609C27.3857 18.0955 27.5708 17.9641 27.7025 17.786C27.8342 17.6079 27.9056 17.3924 27.9062 17.1709V12.4375H34.0938V17.1709C34.0944 17.3924 34.1658 17.6079 34.2975 17.786C34.4292 17.9641 34.6143 18.0955 34.8259 18.1609C35.7087 18.4192 36.5623 18.7683 37.3731 19.2025C37.5697 19.3076 37.7947 19.3473 38.0154 19.3158C38.2361 19.2843 38.441 19.1832 38.6003 19.0272L41.9416 15.6859L46.3141 20.0584L42.9728 23.3997C42.8168 23.559 42.7157 23.7639 42.6842 23.9846C42.6527 24.2053 42.6924 24.4303 42.7975 24.6269C43.2342 25.4329 43.5834 26.2834 43.8391 27.1638C43.9015 27.378 44.0318 27.5661 44.2103 27.7C44.3888 27.8339 44.6059 27.9062 44.8291 27.9062H49.5625V34.0938Z" fill="#7374FF"/>
<path d="M36.1562 28.9375C36.1538 28.1177 35.8271 27.3323 35.2474 26.7526C34.6677 26.1729 33.8823 25.8462 33.0625 25.8437V24.8125H31V25.8437H29.9687V24.8125H27.9062V25.8437H25.8438V27.9062H26.875V34.0937H25.8438V36.1562H27.9062V37.1875H29.9687V36.1562H31V37.1875H33.0625V36.1562C33.8823 36.1538 34.6677 35.8271 35.2474 35.2474C35.8271 34.6677 36.1538 33.8823 36.1562 33.0625C36.1543 32.2988 35.8674 31.5634 35.3519 31C35.8674 30.4366 36.1543 29.7012 36.1562 28.9375ZM33.0625 34.0937H28.9375V32.0312H33.0625C33.336 32.0312 33.5983 32.1399 33.7917 32.3333C33.9851 32.5267 34.0937 32.789 34.0937 33.0625C34.0937 33.336 33.9851 33.5983 33.7917 33.7917C33.5983 33.9851 33.336 34.0937 33.0625 34.0937ZM33.0625 29.9687H28.9375V27.9062H33.0625C33.336 27.9062 33.5983 28.0149 33.7917 28.2083C33.9851 28.4017 34.0937 28.664 34.0937 28.9375C34.0937 29.211 33.9851 29.4733 33.7917 29.6667C33.5983 29.8601 33.336 29.9687 33.0625 29.9687Z" fill="#7374FF"/>
<path d="M8.31247 0.0629883C6.68078 0.0629883 5.08572 0.546842 3.72902 1.45336C2.37231 2.35989 1.31489 3.64836 0.690467 5.15585C0.0660441 6.66334 -0.0973334 8.32214 0.220995 9.92248C0.539323 11.5228 1.32506 12.9928 2.47884 14.1466C3.63263 15.3004 5.10264 16.0861 6.70298 16.4045C8.30332 16.7228 9.96212 16.5594 11.4696 15.935C12.9771 15.3106 14.2656 14.2531 15.1721 12.8964C16.0786 11.5397 16.5625 9.94468 16.5625 8.31299C16.5595 6.12587 15.6893 4.0292 14.1428 2.48267C12.5963 0.936147 10.4996 0.0659894 8.31247 0.0629883ZM8.31247 14.5005C7.0887 14.5005 5.89241 14.1376 4.87488 13.4577C3.85735 12.7778 3.06429 11.8115 2.59597 10.6808C2.12765 9.55022 2.00512 8.30612 2.24386 7.10587C2.48261 5.90561 3.07191 4.8031 3.93725 3.93776C4.80259 3.07243 5.90509 2.48312 7.10535 2.24438C8.30561 2.00563 9.54971 2.12817 10.6803 2.59648C11.8109 3.0648 12.7773 3.85787 13.4572 4.8754C14.1371 5.89293 14.5 7.08922 14.5 8.31299C14.5 9.95401 13.8481 11.5278 12.6877 12.6882C11.5273 13.8486 9.9535 14.5005 8.31247 14.5005Z" fill="#7374FF"/>
<path d="M8.31247 45.4375C6.68078 45.4375 5.08572 45.9214 3.72902 46.8279C2.37231 47.7344 1.31489 49.0229 0.690467 50.5304C0.0660441 52.0379 -0.0973334 53.6967 0.220995 55.297C0.539323 56.8973 1.32506 58.3673 2.47884 59.5211C3.63263 60.6749 5.10264 61.4607 6.70298 61.779C8.30332 62.0973 9.96212 61.9339 11.4696 61.3095C12.9771 60.6851 14.2656 59.6277 15.1721 58.271C16.0786 56.9142 16.5625 55.3192 16.5625 53.6875C16.5595 51.5004 15.6893 49.4037 14.1428 47.8572C12.5963 46.3107 10.4996 45.4405 8.31247 45.4375ZM8.31247 59.875C7.0887 59.875 5.89241 59.5121 4.87488 58.8322C3.85735 58.1523 3.06429 57.186 2.59597 56.0554C2.12765 54.9247 2.00512 53.6806 2.24386 52.4804C2.48261 51.2801 3.07191 50.1776 3.93725 49.3123C4.80259 48.4469 5.90509 47.8576 7.10535 47.6189C8.30561 47.3801 9.54971 47.5027 10.6803 47.971C11.8109 48.4393 12.7773 49.2324 13.4572 50.2499C14.1371 51.2674 14.5 52.4637 14.5 53.6875C14.5 55.3285 13.8481 56.9023 12.6877 58.0627C11.5273 59.2231 9.9535 59.875 8.31247 59.875Z" fill="#7374FF"/>
<path d="M53.6875 0.0625C52.0558 0.0625 50.4607 0.546354 49.104 1.45288C47.7473 2.3594 46.6899 3.64787 46.0655 5.15536C45.441 6.66285 45.2777 8.32165 45.596 9.922C45.9143 11.5223 46.7001 12.9923 47.8538 14.1461C49.0076 15.2999 50.4776 16.0857 52.078 16.404C53.6783 16.7223 55.3371 16.5589 56.8446 15.9345C58.3521 15.3101 59.6406 14.2527 60.5471 12.896C61.4536 11.5392 61.9375 9.9442 61.9375 8.3125C61.9345 6.12539 61.0643 4.02871 59.5178 2.48218C57.9713 0.935659 55.8746 0.0655011 53.6875 0.0625ZM53.6875 14.5C52.4637 14.5 51.2674 14.1371 50.2499 13.4572C49.2324 12.7773 48.4393 11.811 47.971 10.6804C47.5027 9.54974 47.3801 8.30564 47.6189 7.10538C47.8576 5.90512 48.4469 4.80261 49.3123 3.93728C50.1776 3.07194 51.2801 2.48264 52.4804 2.24389C53.6806 2.00514 54.9247 2.12768 56.0553 2.596C57.1859 3.06431 58.1523 3.85738 58.8322 4.87491C59.5121 5.89244 59.875 7.08873 59.875 8.3125C59.875 9.95353 59.2231 11.5273 58.0627 12.6877C56.9023 13.8481 55.3285 14.5 53.6875 14.5Z" fill="#7374FF"/>
<path d="M53.6875 45.4375C52.0558 45.4375 50.4607 45.9214 49.104 46.8279C47.7473 47.7344 46.6899 49.0229 46.0655 50.5304C45.441 52.0379 45.2777 53.6967 45.596 55.297C45.9143 56.8973 46.7001 58.3673 47.8538 59.5211C49.0076 60.6749 50.4776 61.4607 52.078 61.779C53.6783 62.0973 55.3371 61.9339 56.8446 61.3095C58.3521 60.6851 59.6406 59.6277 60.5471 58.271C61.4536 56.9142 61.9375 55.3192 61.9375 53.6875C61.9345 51.5004 61.0643 49.4037 59.5178 47.8572C57.9713 46.3107 55.8746 45.4405 53.6875 45.4375ZM53.6875 59.875C52.4637 59.875 51.2674 59.5121 50.2499 58.8322C49.2324 58.1523 48.4393 57.186 47.971 56.0554C47.5027 54.9247 47.3801 53.6806 47.6189 52.4804C47.8576 51.2801 48.4469 50.1776 49.3123 49.3123C50.1776 48.4469 51.2801 47.8576 52.4804 47.6189C53.6806 47.3801 54.9247 47.5027 56.0553 47.971C57.1859 48.4393 58.1523 49.2324 58.8322 50.2499C59.5121 51.2674 59.875 52.4637 59.875 53.6875C59.875 55.3285 59.2231 56.9023 58.0627 58.0627C56.9023 59.2231 55.3285 59.875 53.6875 59.875Z" fill="#7374FF"/>
<path d="M5.11553 43.803C3.1391 39.7973 2.11693 35.3884 2.1291 30.9217C2.14126 26.4549 3.18743 22.0517 5.18566 18.0568L3.34281 17.1287C1.20011 21.4084 0.0775309 26.1262 0.0630389 30.9123C0.0485468 35.6985 1.14253 40.423 3.25928 44.7156L5.11553 43.803Z" fill="#7374FF"/>
<path d="M30.9998 59.875C26.505 59.8886 22.0704 58.8414 18.0565 56.8184L17.1284 58.6612C21.4346 60.8158 26.1836 61.9375 30.9987 61.9375C35.8139 61.9375 40.5628 60.8158 44.869 58.6612L43.9409 56.8184C39.9275 58.8404 35.4938 59.8876 30.9998 59.875Z" fill="#7374FF"/>
<path d="M58.6611 44.8693C60.816 40.5632 61.9379 35.8142 61.9379 30.999C61.9379 26.1838 60.816 21.4348 58.6611 17.1287L56.8182 18.0568C58.828 22.075 59.8744 26.5061 59.8744 30.999C59.8744 35.4918 58.828 39.9229 56.8182 43.9412L58.6611 44.8693Z" fill="#7374FF"/>
<path d="M30.9998 2.12501C35.4944 2.11176 39.9288 3.15863 43.943 5.18061L44.8711 3.33776C40.5648 1.18352 35.8159 0.0619507 31.0008 0.0619507C26.1857 0.0619507 21.4368 1.18352 17.1305 3.33776L18.0586 5.18061C22.0722 3.15894 26.5058 2.11209 30.9998 2.12501Z" fill="#7374FF"/>
</svg>
