<svg width="136" height="47" viewBox="0 0 136 47" fill="none" xmlns="http://www.w3.org/2000/svg">
<g clip-path="url(#clip0_2_2246)">
<path d="M19.3377 25.8644C21.151 25.8579 25.1156 25.8432 25.0699 23.3215C25.0258 20.7427 21.218 20.8978 19.3622 20.9745C19.1549 20.9827 18.9705 20.9908 18.8203 20.9924L18.9052 25.8677C19.0276 25.8644 19.1745 25.8644 19.3377 25.8644Z" fill="#6AD0F2"/>
<path d="M19.1448 18.7596C20.6578 18.7579 23.9597 18.7547 23.9205 16.4615C23.878 14.1161 20.7068 14.2548 19.1578 14.3234C18.9832 14.3315 18.8314 14.338 18.7041 14.3397L18.7808 18.7612L19.1448 18.7596Z" fill="#6AD0F2"/>
<path fill-rule="evenodd" clip-rule="evenodd" d="M15.6007 39.5188C26.0955 42.1352 36.7241 35.7485 39.3405 25.257C41.9568 14.7638 35.5685 4.13521 25.0737 1.52049C14.5855 -1.0975 3.95684 5.29078 1.34211 15.7856C-1.27424 26.2771 5.11241 36.9057 15.6023 39.5205L15.6007 39.5188ZM22.5896 11.7394C25.4524 11.9418 27.7309 12.7808 28.0296 15.3988C28.2516 17.3149 27.4681 18.4819 26.1967 19.1576C28.3185 19.6277 29.665 20.86 29.4528 23.6803C29.19 27.1813 26.5998 28.1655 22.8817 28.443L22.9438 32.1153L20.7306 32.1561L20.6669 28.5328C20.094 28.5425 19.5064 28.5491 18.8976 28.5458L18.9629 32.1855L16.7497 32.2247L16.6844 28.5458L16.0593 28.5507C15.7427 28.5523 15.4228 28.554 15.1029 28.5605L12.2205 28.6095L12.6138 25.9588C12.6138 25.9588 14.2525 25.9556 14.2231 25.9311C14.8499 25.918 15.0082 25.4659 15.0425 25.1819L14.9429 19.3763L15.1012 19.3731H15.1763C15.0983 19.3641 15.0198 19.3603 14.9413 19.3616L14.8695 15.2159C14.7764 14.7687 14.4761 14.253 13.5801 14.2693C13.6045 14.2367 11.9707 14.297 11.9707 14.297L11.9283 11.9337L14.9837 11.8814V11.8929C15.4424 11.8847 15.914 11.8684 16.3923 11.8504L16.3302 8.21235L18.5435 8.17481L18.6055 11.7394C19.1963 11.7182 19.7904 11.6954 20.3731 11.6856L20.3111 8.1438L22.5259 8.10462L22.5896 11.7427V11.7394Z" fill="#6AD0F2"/>
</g>
<g clip-path="url(#clip1_2_2246)" filter="url(#filter0_d_2_2246)">
<path d="M53.2451 0.933251C64.0627 0.933251 72.8311 9.70163 72.8311 20.5192C72.8311 31.3367 64.0627 40.1051 53.2451 40.1051C42.4276 40.1051 33.6592 31.3367 33.6592 20.5192C33.6564 17.5303 34.339 14.5806 35.6545 11.8967C36.97 9.21289 38.8833 6.86643 41.2475 5.03773L41.3614 5.17728L41.6674 5.55186C46.0057 10.8645 48.2483 13.6225 48.3952 13.8245C48.64 14.1648 48.5482 14.4696 48.1271 14.7095C47.8933 14.8429 47.411 14.9776 47.171 14.9776C46.8981 14.9776 46.5908 14.8466 46.3668 14.6348C46.3072 14.5708 46.2523 14.5025 46.2028 14.4304L46.0975 14.2847C45.767 13.8147 45.1427 12.8648 44.0985 11.2465C43.4089 10.1663 42.7103 9.09189 42.0028 8.02336L41.9881 8.01112C41.9857 8.01112 41.9869 8.01601 41.993 8.0307L42.0322 8.10905C42.1583 8.35142 42.6063 9.152 43.9834 11.6174C45.2639 13.9089 45.6972 14.7181 45.6972 14.827C45.6972 15.0474 45.636 15.1624 45.3642 15.466C44.9113 15.9716 44.7093 16.5396 44.5624 17.7147C44.3984 19.0331 43.9381 19.9634 42.6601 21.556C41.9134 22.4888 41.791 22.6602 41.6013 23.036C41.3638 23.5085 41.2989 23.7741 41.272 24.3715C41.2438 25.0031 41.2989 25.412 41.4923 26.0155C41.6613 26.5443 41.8375 26.8944 42.288 27.5921C42.6773 28.1956 42.9013 28.6437 42.9013 28.8187C42.9013 28.9583 42.9282 28.9583 43.5317 28.8224C44.975 28.4968 46.1464 27.9227 46.8062 27.22C47.2139 26.7855 47.3094 26.5455 47.313 25.9494C47.3143 25.5601 47.3008 25.4781 47.1955 25.2541C47.0241 24.8893 46.712 24.5857 46.024 24.1156C45.1219 23.4987 44.7375 23.0017 44.631 22.3199C44.5428 21.7604 44.6444 21.365 45.1439 20.3196C45.6592 19.2375 45.7878 18.7773 45.8747 17.6866C45.9298 16.9815 46.0069 16.7036 46.2101 16.4808C46.4206 16.2482 46.6116 16.1687 47.1343 16.0977C47.9863 15.9814 48.5286 15.761 48.9742 15.3509C49.361 14.9935 49.5226 14.6495 49.5471 14.1329L49.5666 13.7412L49.35 13.4891L49.3255 13.4597C48.9191 12.9945 46.3545 10.1656 41.6331 4.97407L41.5083 4.8382C44.8931 2.29733 49.0127 0.926703 53.2451 0.933251ZM53.3039 26.297C52.7481 26.155 51.748 26.1159 51.147 26.2138C49.7527 26.4403 48.2238 27.1772 46.9935 28.2152L46.6275 28.5249L46.9495 28.5739C48.6277 28.8371 49.0794 29.0697 50.2448 30.2693C50.9144 30.9597 51.1409 31.1139 51.6966 31.2547C52.5131 31.4628 53.3186 31.0809 53.594 30.3525C53.7176 30.0269 53.7017 29.4871 53.5597 29.2166C53.2231 28.5727 52.2426 28.3646 51.7688 28.8371C51.3734 29.2288 51.4885 29.8213 51.9794 29.9241C52.092 29.9474 52.0896 29.9425 51.9512 29.88C51.7358 29.7821 51.6427 29.6474 51.6415 29.4332C51.6391 28.9313 52.2144 28.6486 52.7494 28.8897C53.1411 29.066 53.2978 29.2973 53.2978 29.7025C53.2992 29.8481 53.2693 29.9922 53.2102 30.1252C53.1511 30.2582 53.0641 30.377 52.9551 30.4734C52.8461 30.5699 52.7177 30.6418 52.5785 30.6843C52.4393 30.7268 52.2926 30.7389 52.1483 30.7198C51.7857 30.6619 51.4518 30.4874 51.1972 30.2228C50.6524 29.6058 50.8642 28.6339 51.6256 28.2605C52.2046 27.9765 52.9746 28.0463 53.572 28.438C54.2575 28.8873 54.55 29.2973 55.1413 30.6451C55.3335 31.0846 55.582 31.5779 55.6921 31.7431C56.2503 32.5817 56.9212 32.9917 57.7291 32.9917C58.1747 32.9917 58.5101 32.911 58.9324 32.7004C59.2458 32.5437 59.6889 32.2475 59.6571 32.2144C59.5575 32.2322 59.4604 32.2622 59.3682 32.3038C58.4868 32.6478 57.5895 32.6245 57.0693 32.2426C56.7412 32.0039 56.4768 31.5252 56.3409 30.9279C56.2772 30.5903 56.2197 30.2516 56.1683 29.9119C55.9872 28.7587 55.8133 28.2397 55.4081 27.6448C54.9919 27.0364 54.1963 26.5247 53.3039 26.297ZM59.2311 20.2315C59.2066 20.2315 59.165 20.3062 59.1393 20.3968C58.8981 21.25 58.9985 22.1632 59.4392 23.1094L59.5187 23.2747C59.7219 23.6823 59.9864 24.1022 60.7796 25.2908C61.552 26.45 61.9352 27.1356 62.1224 27.6974C62.4285 28.6155 62.3832 29.4406 61.978 30.2877C61.8813 30.4884 61.8176 30.6512 61.8348 30.6512C61.8519 30.6512 62.0098 30.5729 62.1873 30.4762C63.3919 29.8225 64.2377 28.7012 64.6013 27.2739C64.7164 26.821 64.7616 25.7401 64.6845 25.2908C64.5474 24.4976 64.2634 23.8463 63.8032 23.2747C63.2792 22.6222 62.508 22.0506 61.1554 21.3136C60.072 20.7236 59.6656 20.4935 59.4624 20.3564C59.3919 20.3036 59.3139 20.2615 59.2311 20.2315ZM42.4141 24.3176C42.4141 24.0753 42.8487 23.9871 43.1278 24.1732C43.424 24.369 43.5183 24.773 43.3408 25.0864C43.1718 25.3863 42.8474 25.4854 42.6185 25.3067C42.4778 25.1953 42.468 25.0313 42.5916 24.8452C42.714 24.6616 42.7018 24.5722 42.5463 24.4927C42.4545 24.4449 42.4141 24.3911 42.4141 24.3176ZM57.6764 19.4579L57.7609 19.7113C57.8282 19.9412 57.8813 20.175 57.92 20.4115C58.1857 21.9906 57.3569 23.2673 55.7436 23.7619C55.5722 23.8145 54.9001 23.9455 54.2501 24.0544C52.9305 24.2748 52.3429 24.429 51.7517 24.7142C51.3318 24.9162 50.825 25.2186 50.8544 25.2492C50.928 25.2453 51.0002 25.2279 51.0674 25.1978C51.8129 24.9358 52.6429 24.8012 53.9025 24.7351C54.4031 24.7093 54.9724 24.6677 55.167 24.6432C56.2907 24.5012 57.0681 24.1609 57.674 23.544C58.0106 23.2012 58.2114 22.883 58.3717 22.4325C58.4758 22.146 58.4893 22.0408 58.4905 21.534C58.4905 21.0186 58.4782 20.9244 58.3681 20.6073C58.2212 20.1911 58.0498 19.879 57.8331 19.6354L57.6764 19.4591V19.4579ZM55.7876 14.8895C55.7754 14.8895 55.7656 15.1245 55.7656 15.4121C55.7656 17.3658 56.9334 18.5239 60.2459 19.8582C62.453 20.7456 63.3551 21.2047 64.0284 21.7825C64.6184 22.2905 64.971 22.9686 65.004 23.6639C65.0101 23.7949 65.0346 23.8892 65.0591 23.8818C65.1497 23.8525 65.4876 23.0947 65.5989 22.6736C65.7397 22.1411 65.7899 21.1312 65.7042 20.5926C65.4055 18.7393 64.1545 17.3781 62.1322 16.7073C61.4957 16.4967 60.8053 16.3523 59.5799 16.1723C57.4977 15.8687 56.7449 15.6386 56.0728 15.1C55.9828 15.0232 55.8875 14.9528 55.7876 14.8895ZM51.1311 16.4012C50.8838 16.2752 50.3586 16.225 50.104 16.3033C49.7037 16.4257 49.3157 16.8505 49.1945 17.2948C49.1211 17.5654 49.1627 18.0416 49.2728 18.1885C49.4503 18.4259 49.6229 18.4884 50.0881 18.4847C50.9989 18.4786 51.7896 18.0881 51.8827 17.5997C51.9586 17.1994 51.6097 16.6448 51.1311 16.4V16.4012ZM49.8665 16.957C49.8665 16.5273 50.5545 16.296 51.0087 16.5751C51.2474 16.7207 51.3098 16.9362 51.1678 17.1357C51.0723 17.2728 50.7724 17.405 50.5533 17.405C50.2252 17.405 49.8665 17.17 49.8665 16.957ZM50.0404 8.04662C49.5275 7.9242 48.7832 7.85933 48.4686 7.90707C48.3046 7.93155 48.3193 7.93889 48.6681 7.99275C49.9412 8.19106 50.934 8.6954 51.9463 9.65756C52.3907 10.0799 52.8387 10.605 53.5622 11.5549C55.1927 13.6935 55.8843 14.2896 57.2566 14.7377C58.062 14.9996 58.8761 15.122 60.3132 15.1979C61.9046 15.2824 62.5044 15.4097 63.0736 15.7855C63.3882 15.9936 63.6342 16.2531 63.8791 16.6326L64.0223 16.8529L63.9917 16.6106C63.8778 15.6802 63.2131 14.3704 62.366 13.4119L62.2118 13.2369L62.1335 13.5882C61.9376 14.4732 61.5141 15.1086 61.1199 15.1098C61.0246 15.1091 60.9313 15.0816 60.8508 15.0306C60.7703 14.9795 60.7058 14.9069 60.6645 14.8209C60.5776 14.6128 60.5849 14.5369 60.7135 14.2945C60.9522 13.8477 61.0109 13.2504 60.8934 12.4706C60.8604 12.2453 60.8102 12.0336 60.7833 12.0017C60.6976 11.8977 60.0096 11.4974 59.5738 11.2967C57.991 10.5646 56.0973 10.3272 54.2367 10.6271L53.796 10.6981L53.4875 10.3541C52.3246 9.06019 51.2363 8.33184 50.0404 8.04662ZM61.5459 8.39794C61.5361 8.39794 61.4712 8.5228 61.4027 8.67459C61.2288 9.05774 61.1431 9.47761 61.1064 10.1142C61.0832 10.5242 61.0599 10.665 61.0122 10.6821C60.9399 10.7103 60.8432 10.6809 60.2532 10.4545C59.8578 10.3014 58.8736 10.0138 58.8455 10.0432C58.8381 10.0505 59.0438 10.1509 59.3033 10.2659C59.5628 10.381 59.9839 10.5989 60.2385 10.7507C61.2484 11.3481 61.4198 11.6957 61.421 13.1451C61.421 13.8673 61.4125 13.9616 61.3231 14.1795C61.2031 14.472 61.2252 14.5271 61.3561 14.2688C61.601 13.7914 61.7038 13.3116 61.7185 12.5673C61.7271 12.0899 61.7417 11.9883 61.8091 11.921C61.8825 11.8475 61.9009 11.8475 62.0196 11.9087C62.1971 11.9993 62.9989 12.6383 63.349 12.9651L63.6342 13.2332L63.349 12.8586C63.1923 12.6518 62.759 12.1731 62.3856 11.7912C61.5924 10.9796 61.5287 10.8719 61.4186 10.1203C61.3329 9.5278 61.3525 9.01857 61.4798 8.64766C61.5131 8.56783 61.5354 8.48381 61.5459 8.39794ZM48.3229 8.655L48.2936 9.00143C48.1993 10.1203 48.6375 11.6174 49.3463 12.593C49.8971 13.3495 50.7479 13.9371 51.3783 13.9946C51.7896 14.0313 51.9133 13.9028 51.7272 13.6311C51.4677 13.2528 51.1494 12.6713 51.0662 12.4216C50.9681 12.0865 50.8836 11.7475 50.8128 11.4056C50.5178 10.0285 50.2264 9.49108 49.5556 9.08345C49.2192 8.90048 48.8586 8.76612 48.4845 8.68438L48.3229 8.655Z" fill="#6AD0F2"/>
</g>
<g filter="url(#filter1_d_2_2246)">
<g clip-path="url(#clip2_2_2246)">
<path d="M83.0156 0.933228C93.8332 0.933228 102.602 9.7016 102.602 20.5192C102.602 31.3367 93.8332 40.1051 83.0156 40.1051C72.1981 40.1051 63.4297 31.3367 63.4297 20.5192C63.4297 9.7016 72.1981 0.933228 83.0156 0.933228ZM83.0156 8.27795L80.8134 9.5694L74.814 13.1071L72.6106 14.3986V26.6398L74.8128 27.9312L80.8685 31.4689L83.0707 32.7604L85.2729 31.4689L91.2184 27.9312L93.4206 26.6398V14.3986L91.2184 13.1071L85.2178 9.5694L83.0156 8.27795ZM83.0156 13.4437L89.0163 16.9814V24.0569L83.0156 27.5946L77.015 24.0569V16.9814L83.0156 13.4437Z" fill="#6AD0F2"/>
</g>
</g>
<g filter="url(#filter2_d_2_2246)">
<path fill-rule="evenodd" clip-rule="evenodd" d="M112.786 40.1051C101.969 40.1051 93.2002 31.3367 93.2002 20.5192C93.2002 9.7016 101.969 0.933228 112.786 0.933228C123.604 0.933228 132.372 9.7016 132.372 20.5192C132.372 31.3367 123.604 40.1051 112.786 40.1051ZM122.572 20.7872L113.396 5.82971L104.217 20.7885L113.396 26.1171L122.572 20.7872ZM122.579 22.4973L113.396 27.8235L104.217 22.4986L113.396 35.2025L122.579 22.4973Z" fill="#6AD0F2"/>
</g>
<defs>
<filter id="filter0_d_2_2246" x="30.5254" y="0.933228" width="45.4394" height="45.4394" filterUnits="userSpaceOnUse" color-interpolation-filters="sRGB">
<feFlood flood-opacity="0" result="BackgroundImageFix"/>
<feColorMatrix in="SourceAlpha" type="matrix" values="0 0 0 0 0 0 0 0 0 0 0 0 0 0 0 0 0 0 127 0" result="hardAlpha"/>
<feOffset dy="3.13375"/>
<feGaussianBlur stdDeviation="1.56687"/>
<feColorMatrix type="matrix" values="0 0 0 0 0 0 0 0 0 0 0 0 0 0 0 0 0 0 0.25 0"/>
<feBlend mode="normal" in2="BackgroundImageFix" result="effect1_dropShadow_2_2246"/>
<feBlend mode="normal" in="SourceGraphic" in2="effect1_dropShadow_2_2246" result="shape"/>
</filter>
<filter id="filter1_d_2_2246" x="60.2959" y="0.933228" width="45.4394" height="45.4394" filterUnits="userSpaceOnUse" color-interpolation-filters="sRGB">
<feFlood flood-opacity="0" result="BackgroundImageFix"/>
<feColorMatrix in="SourceAlpha" type="matrix" values="0 0 0 0 0 0 0 0 0 0 0 0 0 0 0 0 0 0 127 0" result="hardAlpha"/>
<feOffset dy="3.13375"/>
<feGaussianBlur stdDeviation="1.56687"/>
<feColorMatrix type="matrix" values="0 0 0 0 0 0 0 0 0 0 0 0 0 0 0 0 0 0 0.25 0"/>
<feBlend mode="normal" in2="BackgroundImageFix" result="effect1_dropShadow_2_2246"/>
<feBlend mode="normal" in="SourceGraphic" in2="effect1_dropShadow_2_2246" result="shape"/>
</filter>
<filter id="filter2_d_2_2246" x="90.0664" y="0.933228" width="45.4394" height="45.4394" filterUnits="userSpaceOnUse" color-interpolation-filters="sRGB">
<feFlood flood-opacity="0" result="BackgroundImageFix"/>
<feColorMatrix in="SourceAlpha" type="matrix" values="0 0 0 0 0 0 0 0 0 0 0 0 0 0 0 0 0 0 127 0" result="hardAlpha"/>
<feOffset dy="3.13375"/>
<feGaussianBlur stdDeviation="1.56687"/>
<feColorMatrix type="matrix" values="0 0 0 0 0 0 0 0 0 0 0 0 0 0 0 0 0 0 0.25 0"/>
<feBlend mode="normal" in2="BackgroundImageFix" result="effect1_dropShadow_2_2246"/>
<feBlend mode="normal" in="SourceGraphic" in2="effect1_dropShadow_2_2246" result="shape"/>
</filter>
<clipPath id="clip0_2_2246">
<rect width="39.1719" height="39.1719" fill="white" transform="translate(0.754883 0.933228)"/>
</clipPath>
<clipPath id="clip1_2_2246">
<rect width="39.1719" height="39.1719" fill="white" transform="translate(33.6592 0.933228)"/>
</clipPath>
<clipPath id="clip2_2_2246">
<rect width="39.1719" height="39.1719" fill="white" transform="translate(63.4297 0.933228)"/>
</clipPath>
</defs>
</svg>
