<svg width="60" height="58" viewBox="0 0 60 58" fill="none" xmlns="http://www.w3.org/2000/svg">
<path d="M58.8911 26.3029L54.0182 26.8888L49.0011 26.3029C48.3888 26.3029 47.8925 25.8065 47.8925 25.1943V22.9672C47.8925 22.3549 48.389 21.8586 49.0011 21.8586H58.8909C59.5033 21.8586 59.9995 22.355 59.9995 22.9672V25.1943C59.9997 25.8065 59.5034 26.3029 58.8911 26.3029Z" fill="#FCF6EE"/>
<path d="M58.8911 35.192L53.7351 35.778L49.0011 35.192C48.3888 35.192 47.8925 34.6956 47.8925 34.0834V31.8564C47.8925 31.2441 48.389 30.7478 49.0011 30.7478L53.2623 30.1619L58.8909 30.7478C59.5033 30.7478 59.9995 31.2442 59.9995 31.8564V34.0834C59.9997 34.6957 59.5034 35.192 58.8911 35.192Z" fill="#FCF6EE"/>
<path d="M58.8911 44.0815L53.7917 44.6674L49.0011 44.0815C48.3888 44.0815 47.8925 43.5851 47.8925 42.9729V40.7457C47.8925 40.1334 48.389 39.6371 49.0011 39.6371L53.7351 39.0512L58.8911 39.6371C59.5034 39.6371 59.9997 40.1336 59.9997 40.7457V42.9728C59.9997 43.5851 59.5034 44.0815 58.8911 44.0815Z" fill="#FCF6EE"/>
<path d="M58.891 52.9708L53.9049 53.5568L49.0012 52.9708C48.3889 52.9708 47.8926 52.4744 47.8926 51.8622V49.6352C47.8926 49.0229 48.389 48.5266 49.0012 48.5266L53.7917 47.9407L58.8912 48.5266C59.5035 48.5266 59.9997 49.023 59.9997 49.6352V51.8622C59.9996 52.4745 59.5033 52.9708 58.891 52.9708Z" fill="#FCF6EE"/>
<path d="M42.9268 48.5262L37.9361 49.1121L33.037 48.5262C32.4247 48.5262 31.9285 48.0298 31.9285 47.4176V45.1906C31.9285 44.5783 32.4249 44.082 33.037 44.082L37.8229 43.496L42.927 44.082C43.5393 44.082 44.0355 44.5784 44.0355 45.1906V47.4176C44.0354 48.0298 43.5391 48.5262 42.9268 48.5262Z" fill="#FCF6EE"/>
<path d="M42.9268 39.6368L37.8795 40.2228L33.037 39.6368C32.4247 39.6368 31.9285 39.1404 31.9285 38.5282V36.3012C31.9285 35.6889 32.4249 35.1926 33.037 35.1926L37.6529 34.6067L42.9268 35.1926C43.5391 35.1926 44.0354 35.689 44.0354 36.3012V38.5282C44.0354 39.1404 43.5391 39.6368 42.9268 39.6368Z" fill="#FCF6EE"/>
<path d="M26.9627 35.1918L22.137 35.7777L17.0728 35.1918C16.4605 35.1918 15.9642 34.6954 15.9642 34.0832V31.8562C15.9642 31.2439 16.4606 30.7476 17.0728 30.7476H26.9626C27.5749 30.7476 28.0712 31.244 28.0712 31.8562V34.0832C28.0713 34.6954 27.575 35.1918 26.9627 35.1918Z" fill="#FCF6EE"/>
<path d="M26.9627 44.0815L22.0804 44.6674L17.0729 44.0815C16.4606 44.0815 15.9643 43.5851 15.9643 42.9729V40.7457C15.9643 40.1334 16.4607 39.6371 17.0729 39.6371L21.9106 39.0512L26.9628 39.6371C27.5751 39.6371 28.0714 40.1336 28.0714 40.7457V42.9728C28.0713 43.5851 27.575 44.0815 26.9627 44.0815Z" fill="#FCF6EE"/>
<path d="M26.9627 52.9708L22.0238 53.5568L17.0729 52.9708C16.4606 52.9708 15.9643 52.4744 15.9643 51.8622V49.6352C15.9643 49.0229 16.4607 48.5266 17.0729 48.5266L22.0238 47.9407L26.9627 48.5266C27.575 48.5266 28.0713 49.023 28.0713 49.6352V51.8622C28.0713 52.4745 27.575 52.9708 26.9627 52.9708Z" fill="#FCF6EE"/>
<path d="M10.9985 48.5262L5.88504 49.1121L1.10859 48.5262C0.496289 48.5262 0 48.0298 0 47.4176V45.1906C0 44.5783 0.496406 44.082 1.10859 44.082L5.99824 43.496L10.9984 44.082C11.6107 44.082 12.107 44.5784 12.107 45.1906V47.4176C12.1071 48.0298 11.6107 48.5262 10.9985 48.5262Z" fill="#FCF6EE"/>
<path d="M14.0392 24.5884L10.1935 28.2283C8.92809 27.4662 7.93657 26.2937 7.40489 24.8969L11.6845 20.8442L14.0392 24.5884Z" fill="#17998C"/>
<path d="M2.16916 35.0088C1.59412 35.0088 1.02037 34.7815 0.593811 34.331C-0.229783 33.4611 -0.192165 32.0883 0.677717 31.2649L11.6844 20.8443C12.0872 20.463 12.6209 20.2504 13.1755 20.2504H37.248L54.411 3.08736C55.258 2.24033 56.6312 2.24033 57.4783 3.08736C58.3253 3.93439 58.3253 5.3076 57.4783 6.15463L39.6799 23.9529C39.2732 24.3597 38.7215 24.5882 38.1463 24.5882H14.0393L3.65991 34.4149C3.24061 34.8119 2.70436 35.0088 2.16916 35.0088Z" fill="#20B69F"/>
<path d="M57.4789 6.15398L53.446 10.1869C53.2762 9.70476 53.1833 9.1855 53.1833 8.64515V7.40085H51.939C51.3887 7.40085 50.8607 7.30546 50.3711 7.12816L54.4114 3.08777C55.2579 2.24003 56.6311 2.24003 57.4788 3.08777C58.3254 3.93433 58.3254 5.30753 57.4789 6.15398Z" fill="#17998C"/>
<path d="M57.7519 10.8123C56.5766 10.7705 55.6621 9.76885 55.6621 8.59287V5.52549C55.6621 5.19209 55.3918 4.92186 55.0584 4.92186H51.991C50.8149 4.92186 49.8133 4.00733 49.7716 2.83205C49.7278 1.59819 50.715 0.584045 51.9391 0.584045H57.831C59.0289 0.584045 59.9999 1.55506 59.9999 2.75295V8.64479C59.9999 9.86893 58.9858 10.8562 57.7519 10.8123Z" fill="#28C68E"/>
<path d="M13.609 26.6982C15.9061 26.6982 17.7682 24.8361 17.7682 22.539C17.7682 20.2419 15.9061 18.3798 13.609 18.3798C11.3119 18.3798 9.44977 20.2419 9.44977 22.539C9.44977 24.8361 11.3119 26.6982 13.609 26.6982Z" fill="#28C68E"/>
<path d="M17.7682 22.5384C17.7682 24.8362 15.9053 26.6978 13.6088 26.6978C12.7698 26.6978 11.9878 26.4486 11.3334 26.0198C13.1527 25.9033 14.5941 24.3888 14.5941 22.5384C14.5941 20.688 13.1527 19.1735 11.3321 19.0583C11.9865 18.6295 12.7685 18.3804 13.6088 18.3804C15.9053 18.3804 17.7682 20.2419 17.7682 22.5384Z" fill="#26D192"/>
<path d="M38.2735 26.0946C40.5705 26.0946 42.4327 24.2325 42.4327 21.9354C42.4327 19.6383 40.5705 17.7762 38.2735 17.7762C35.9764 17.7762 34.1142 19.6383 34.1142 21.9354C34.1142 24.2325 35.9764 26.0946 38.2735 26.0946Z" fill="#28C68E"/>
<path d="M42.433 21.9348C42.433 24.2327 40.5702 26.0942 38.2737 26.0942C37.4347 26.0942 36.6527 25.845 35.9983 25.4162C37.8176 25.2998 39.259 23.7852 39.259 21.9348C39.259 20.0845 37.8176 18.5699 35.997 18.4547C36.6514 18.0259 37.4334 17.7768 38.2737 17.7768C40.5702 17.7768 42.433 19.6383 42.433 21.9348Z" fill="#26D192"/>
<path d="M10.9985 57.4156H1.10859C0.496289 57.4156 0 56.9192 0 56.307V54.08C0 53.4677 0.496406 52.9714 1.10859 52.9714L5.82832 52.3854L10.9984 52.9714C11.6107 52.9714 12.107 53.4678 12.107 54.08V56.307C12.1071 56.9193 11.6107 57.4156 10.9985 57.4156Z" fill="#FCF6EE"/>
<path d="M12.1075 54.0802V56.3075C12.1075 56.9194 11.6109 57.4161 10.9989 57.4161H7.53438C8.14633 57.4161 8.64297 56.9194 8.64297 56.3075V54.0802C8.64297 53.4683 8.14633 52.9716 7.53438 52.9716H10.9988C11.6107 52.9715 12.1075 53.4683 12.1075 54.0802Z" fill="white"/>
<path d="M10.9985 52.9708H1.10859C0.496289 52.9708 0 52.4744 0 51.8622V49.6352C0 49.0229 0.496406 48.5266 1.10859 48.5266H10.9984C11.6107 48.5266 12.107 49.023 12.107 49.6352V51.8622C12.1071 52.4745 11.6107 52.9708 10.9985 52.9708Z" fill="#55B7D8"/>
<path d="M12.1075 49.6353V51.8626C12.1075 52.4745 11.6109 52.9712 10.9989 52.9712H7.53438C8.14633 52.9712 8.64297 52.4745 8.64297 51.8626V49.6353C8.64297 49.0234 8.14633 48.5267 7.53438 48.5267H10.9988C11.6107 48.5267 12.1075 49.0234 12.1075 49.6353Z" fill="#68C6E6"/>
<path d="M12.1075 45.1907V47.4179C12.1075 48.0299 11.6109 48.5265 10.9989 48.5265H7.53438C8.14633 48.5265 8.64297 48.0299 8.64297 47.4179V45.1907C8.64297 44.5787 8.14633 44.0821 7.53438 44.0821H10.9988C11.6107 44.0821 12.1075 44.5787 12.1075 45.1907Z" fill="white"/>
<path d="M10.9985 44.0816H1.10859C0.496289 44.0816 0 43.5852 0 42.973V40.746C0 40.1337 0.496406 39.6374 1.10859 39.6374H10.9984C11.6107 39.6374 12.107 40.1338 12.107 40.746V42.973C12.1071 43.5852 11.6107 44.0816 10.9985 44.0816Z" fill="#55B7D8"/>
<path d="M12.1075 40.7462V42.9734C12.1075 43.5854 11.6109 44.082 10.9989 44.082H7.53438C8.14633 44.082 8.64297 43.5854 8.64297 42.9734V40.7462C8.64297 40.1342 8.14633 39.6376 7.53438 39.6376H10.9988C11.6107 39.6376 12.1075 40.1342 12.1075 40.7462Z" fill="#68C6E6"/>
<path d="M26.9627 57.4155H17.0729C16.4606 57.4155 15.9643 56.9191 15.9643 56.3069V54.0798C15.9643 53.4675 16.4607 52.9713 17.0729 52.9713H26.9627C27.575 52.9713 28.0713 53.4677 28.0713 54.0798V56.3069C28.0713 56.9192 27.575 57.4155 26.9627 57.4155Z" fill="#55B7D8"/>
<path d="M28.0714 54.0801V56.3074C28.0714 56.9193 27.5747 57.4159 26.9628 57.4159H23.4982C24.1102 57.4159 24.6068 56.9193 24.6068 56.3074V54.0801C24.6068 53.4681 24.1102 52.9715 23.4982 52.9715H26.9626C27.5747 52.9714 28.0714 53.4681 28.0714 54.0801Z" fill="#68C6E6"/>
<path d="M28.0714 49.6353V51.8626C28.0714 52.4745 27.5747 52.9712 26.9628 52.9712H23.4982C24.1102 52.9712 24.6068 52.4745 24.6068 51.8626V49.6353C24.6068 49.0234 24.1102 48.5267 23.4982 48.5267H26.9626C27.5747 48.5267 28.0714 49.0234 28.0714 49.6353Z" fill="white"/>
<path d="M26.9627 48.5261H17.0729C16.4606 48.5261 15.9643 48.0297 15.9643 47.4175V45.1905C15.9643 44.5782 16.4607 44.0819 17.0729 44.0819H26.9627C27.575 44.0819 28.0713 44.5783 28.0713 45.1905V47.4175C28.0713 48.0297 27.575 48.5261 26.9627 48.5261Z" fill="#55B7D8"/>
<path d="M28.0714 45.1906V47.4178C28.0714 48.0298 27.5747 48.5264 26.9628 48.5264H23.4982C24.1102 48.5264 24.6068 48.0298 24.6068 47.4178V45.1906C24.6068 44.5786 24.1102 44.082 23.4982 44.082H26.9626C27.5747 44.082 28.0714 44.5786 28.0714 45.1906Z" fill="#68C6E6"/>
<path d="M42.9268 57.4155H33.037C32.4247 57.4155 31.9285 56.9191 31.9285 56.3069V54.0799C31.9285 53.4676 32.4249 52.9713 33.037 52.9713L38.106 52.3854L42.927 52.9713C43.5393 52.9713 44.0355 53.4677 44.0355 54.0799V56.3069C44.0354 56.9192 43.5391 57.4155 42.9268 57.4155Z" fill="#FCF6EE"/>
<path d="M44.0358 54.0801V56.3074C44.0358 56.9194 43.5392 57.416 42.9272 57.416H39.4628C40.0748 57.416 40.5714 56.9194 40.5714 56.3074V54.0801C40.5714 53.4682 40.0748 52.9716 39.4628 52.9716H42.9272C43.5392 52.9714 44.0358 53.4682 44.0358 54.0801Z" fill="white"/>
<path d="M42.9268 52.9708H33.037C32.4247 52.9708 31.9285 52.4744 31.9285 51.8622V49.6351C31.9285 49.0228 32.4249 48.5266 33.037 48.5266H42.9268C43.5391 48.5266 44.0354 49.023 44.0354 49.6351V51.8622C44.0354 52.4745 43.5391 52.9708 42.9268 52.9708Z" fill="#55B7D8"/>
<path d="M44.0358 49.6353V51.8625C44.0358 52.4745 43.5392 52.9711 42.9272 52.9711H39.4628C40.0748 52.9711 40.5714 52.4745 40.5714 51.8625V49.6353C40.5714 49.0233 40.0748 48.5267 39.4628 48.5267H42.9272C43.5392 48.5267 44.0358 49.0233 44.0358 49.6353Z" fill="#68C6E6"/>
<path d="M44.0358 45.1906V47.4179C44.0358 48.0298 43.5392 48.5265 42.9272 48.5265H39.4628C40.0748 48.5265 40.5714 48.0298 40.5714 47.4179V45.1906C40.5714 44.5787 40.0748 44.082 39.4628 44.082H42.9272C43.5392 44.082 44.0358 44.5787 44.0358 45.1906Z" fill="white"/>
<path d="M58.891 57.4155H49.0012C48.3889 57.4155 47.8926 56.9191 47.8926 56.3069V54.0798C47.8926 53.4675 48.389 52.9713 49.0012 52.9713H58.891C59.5033 52.9713 59.9996 53.4677 59.9996 54.0798V56.3069C59.9996 56.9192 59.5033 57.4155 58.891 57.4155Z" fill="#55B7D8"/>
<path d="M60 54.0801V56.3074C60 56.9193 59.5034 57.4159 58.8914 57.4159H55.427C56.039 57.4159 56.5356 56.9193 56.5356 56.3074V54.0801C56.5356 53.4681 56.039 52.9715 55.427 52.9715H58.8914C59.5034 52.9714 60 53.4681 60 54.0801Z" fill="#68C6E6"/>
<path d="M60 49.6353V51.8626C60 52.4745 59.5034 52.9712 58.8914 52.9712H55.427C56.039 52.9712 56.5356 52.4745 56.5356 51.8626V49.6353C56.5356 49.0234 56.039 48.5267 55.427 48.5267H58.8914C59.5034 48.5267 60 49.0234 60 49.6353Z" fill="white"/>
<path d="M58.891 48.5261H49.0012C48.3889 48.5261 47.8926 48.0297 47.8926 47.4175V45.1905C47.8926 44.5782 48.389 44.0819 49.0012 44.0819H58.891C59.5033 44.0819 59.9996 44.5783 59.9996 45.1905V47.4175C59.9996 48.0297 59.5033 48.5261 58.891 48.5261Z" fill="#55B7D8"/>
<path d="M60 45.1906V47.4178C60 48.0298 59.5034 48.5264 58.8914 48.5264H55.427C56.039 48.5264 56.5356 48.0298 56.5356 47.4178V45.1906C56.5356 44.5786 56.039 44.082 55.427 44.082H58.8914C59.5034 44.082 60 44.5786 60 45.1906Z" fill="#68C6E6"/>
<path d="M28.0717 40.746V42.9732C28.0717 43.5852 27.575 44.0818 26.9631 44.0818H23.4986C24.1105 44.0818 24.6072 43.5852 24.6072 42.9732V40.746C24.6072 40.134 24.1105 39.6374 23.4986 39.6374H26.963C27.575 39.6374 28.0717 40.134 28.0717 40.746Z" fill="white"/>
<path d="M26.9627 39.6365H17.0729C16.4606 39.6365 15.9643 39.1401 15.9643 38.5279V36.3007C15.9643 35.6884 16.4607 35.1921 17.0729 35.1921H26.9627C27.575 35.1921 28.0713 35.6885 28.0713 36.3007V38.5278C28.0713 39.1401 27.575 39.6365 26.9627 39.6365Z" fill="#55B7D8"/>
<path d="M28.0714 36.301V38.5282C28.0714 39.1402 27.5747 39.6368 26.9628 39.6368H23.4982C24.1102 39.6368 24.6068 39.1402 24.6068 38.5282V36.301C24.6068 35.689 24.1102 35.1924 23.4982 35.1924H26.9626C27.5747 35.1924 28.0714 35.689 28.0714 36.301Z" fill="#68C6E6"/>
<path d="M42.9268 44.0815H33.037C32.4247 44.0815 31.9285 43.5851 31.9285 42.9729V40.7457C31.9285 40.1334 32.4249 39.6371 33.037 39.6371H42.9268C43.5391 39.6371 44.0354 40.1336 44.0354 40.7457V42.9728C44.0354 43.5851 43.5391 44.0815 42.9268 44.0815Z" fill="#55B7D8"/>
<path d="M44.0358 40.746V42.9733C44.0358 43.5852 43.5392 44.0818 42.9272 44.0818H39.4628C40.0748 44.0818 40.5714 43.5852 40.5714 42.9733V40.746C40.5714 40.134 40.0748 39.6374 39.4628 39.6374H42.9272C43.5392 39.6374 44.0358 40.134 44.0358 40.746Z" fill="#68C6E6"/>
<path d="M44.0358 36.3013V38.5286C44.0358 39.1405 43.5392 39.6371 42.9272 39.6371H39.4628C40.0748 39.6371 40.5714 39.1405 40.5714 38.5286V36.3013C40.5714 35.6893 40.0748 35.1927 39.4628 35.1927H42.9272C43.5392 35.1926 44.0358 35.6893 44.0358 36.3013Z" fill="white"/>
<path d="M28.0717 31.8562V34.0835C28.0717 34.6954 27.575 35.1921 26.9631 35.1921H23.4986C24.1105 35.1921 24.6072 34.6954 24.6072 34.0835V31.8562C24.6072 31.2443 24.1105 30.7476 23.4986 30.7476H26.963C27.575 30.7476 28.0717 31.2443 28.0717 31.8562Z" fill="white"/>
<path d="M42.9268 35.1918H33.037C32.4247 35.1918 31.9285 34.6954 31.9285 34.0832V31.8562C31.9285 31.2439 32.4249 30.7476 33.037 30.7476H42.9268C43.5391 30.7476 44.0354 31.244 44.0354 31.8562V34.0832C44.0354 34.6956 43.5391 35.1918 42.9268 35.1918Z" fill="#55B7D8"/>
<path d="M44.0358 31.8565V34.0837C44.0358 34.6957 43.5392 35.1923 42.9272 35.1923H39.4628C40.0748 35.1923 40.5714 34.6957 40.5714 34.0837V31.8565C40.5714 31.2445 40.0748 30.7479 39.4628 30.7479H42.9272C43.5392 30.7477 44.0358 31.2445 44.0358 31.8565Z" fill="#68C6E6"/>
<path d="M60 40.746V42.9733C60 43.5852 59.5034 44.0818 58.8914 44.0818H55.427C56.039 44.0818 56.5356 43.5852 56.5356 42.9733V40.746C56.5356 40.134 56.039 39.6374 55.427 39.6374H58.8914C59.5034 39.6374 60 40.134 60 40.746Z" fill="white"/>
<path d="M58.891 39.6367H49.0012C48.3889 39.6367 47.8926 39.1403 47.8926 38.5281V36.3011C47.8926 35.6888 48.389 35.1925 49.0012 35.1925H58.891C59.5033 35.1925 59.9996 35.6889 59.9996 36.3011V38.5281C59.9996 39.1403 59.5033 39.6367 58.891 39.6367Z" fill="#55B7D8"/>
<path d="M60 36.3013V38.5286C60 39.1405 59.5034 39.6371 58.8914 39.6371H55.427C56.039 39.6371 56.5356 39.1405 56.5356 38.5286V36.3013C56.5356 35.6893 56.039 35.1927 55.427 35.1927H58.8914C59.5034 35.1926 60 35.6893 60 36.3013Z" fill="#68C6E6"/>
<path d="M60 31.8566V34.0838C60 34.6958 59.5034 35.1924 58.8914 35.1924H55.427C56.039 35.1924 56.5356 34.6958 56.5356 34.0838V31.8566C56.5356 31.2446 56.039 30.748 55.427 30.748H58.8914C59.5034 30.7479 60 31.2445 60 31.8566Z" fill="white"/>
<path d="M58.891 30.7474H49.0012C48.3889 30.7474 47.8926 30.251 47.8926 29.6388V27.4118C47.8926 26.7995 48.389 26.3032 49.0012 26.3032H58.891C59.5033 26.3032 59.9996 26.7996 59.9996 27.4118V29.6388C59.9996 30.251 59.5033 30.7474 58.891 30.7474Z" fill="#55B7D8"/>
<path d="M60 27.4119V29.6392C60 30.2512 59.5034 30.7478 58.8914 30.7478H55.427C56.039 30.7478 56.5356 30.2512 56.5356 29.6392V27.4119C56.5356 26.8 56.039 26.3033 55.427 26.3033H58.8914C59.5034 26.3033 60 26.8 60 27.4119Z" fill="#68C6E6"/>
<path d="M60 22.9673V25.1946C60 25.8065 59.5034 26.3032 58.8914 26.3032H55.427C56.039 26.3032 56.5356 25.8065 56.5356 25.1946V22.9673C56.5356 22.3553 56.039 21.8587 55.427 21.8587H58.8914C59.5034 21.8587 60 22.3553 60 22.9673Z" fill="white"/>
</svg>
