<svg width="34" height="34" viewBox="0 0 34 34" fill="none" xmlns="http://www.w3.org/2000/svg">
<path d="M33.9991 17C33.9991 19.5585 33.4369 21.9874 32.4251 24.1634L22.9726 18.6979C21.5492 17.8734 21.5492 15.8185 22.9726 14.9961L32.3105 9.5965C33.3945 11.8341 33.9991 14.348 33.9991 17Z" fill="#68C6E6"/>
<path d="M11.2704 18.6979L1.62487 24.2781C0.58119 22.0724 -4.57764e-05 19.6031 -4.57764e-05 17C-4.57764e-05 14.3034 0.627855 11.7512 1.74153 9.48386L11.2725 14.9961C12.6938 15.8206 12.6938 17.8755 11.2704 18.6979Z" fill="#68C6E6"/>
<path d="M15.9585 0V10.8736C15.9585 12.5184 14.1787 13.5469 12.7575 12.7245L3.12465 7.15489C6.0181 3.07063 10.6616 0.320876 15.9585 0Z" fill="#68C6E6"/>
<path d="M30.9753 7.30146L21.5991 12.7223C20.1779 13.5468 18.3981 12.5183 18.3981 10.8715V0.0212097C23.608 0.448335 28.156 3.22996 30.9753 7.30146Z" fill="white"/>
<path d="M15.969 22.9478V33.9999C10.6127 33.6812 5.92468 30.874 3.0376 26.7218L12.768 21.0948C14.1893 20.2724 15.969 21.3009 15.969 22.9478Z" fill="#68C6E6"/>
<path d="M31.0709 26.5667C28.2601 30.7083 23.676 33.5431 18.4088 33.9744V22.9478C18.4088 21.3009 20.1886 20.2724 21.6099 21.0948L31.0709 26.5667Z" fill="#68C6E6"/>
</svg>
