<svg width="200" height="43" viewBox="0 0 200 43" fill="none" xmlns="http://www.w3.org/2000/svg">
<path d="M33.6555 26.1082V0H38.6607L53.9064 19.0735V0H58.5088V26.1082H53.5036L38.1976 7.01054V26.1082H33.6555Z" fill="#392B5F"/>
<path d="M62.4209 26.1082V0H85.3066V4.83486H67.0234V10.6367H81.7282V15.4715H67.0234V21.2734H85.3181V26.1082H62.4209Z" fill="#392B5F"/>
<path d="M93.5307 26.1082C92.2609 26.0987 91.0458 25.5646 90.1479 24.6214C89.25 23.6782 88.7416 22.4017 88.7326 21.0679V0H93.289V20.0042C93.289 20.6811 93.3293 21.0618 93.4099 21.1464C93.4904 21.2311 93.8528 21.2734 94.4972 21.2734H107.787C108.408 21.2734 108.765 21.2311 108.857 21.1464C108.949 21.0618 108.995 20.6811 108.995 20.0042V0H113.597V21.0679C113.588 22.4017 113.08 23.6782 112.182 24.6214C111.284 25.5646 110.069 26.0987 108.799 26.1082H93.5307Z" fill="#392B5F"/>
<path d="M117.363 26.1083V0.0362952H137.384C138.021 0.0276376 138.654 0.157353 139.242 0.417328C139.83 0.677302 140.361 1.06194 140.801 1.54719C141.252 2.00511 141.611 2.55461 141.854 3.16235C142.097 3.77009 142.22 4.4234 142.216 5.08268V12.1113C142.225 12.7739 142.103 13.4313 141.86 14.0426C141.616 14.6539 141.256 15.2061 140.801 15.665C140.358 16.1444 139.826 16.5236 139.238 16.7793C138.651 17.0349 138.02 17.1617 137.384 17.1517H136.037L142.182 24.7666V26.1083H137.211L130.051 17.1517L121.905 17.1879V26.1083H117.363ZM123.116 12.3289H136.405C137.027 12.3289 137.375 12.2927 137.458 12.2201C137.542 12.1476 137.579 11.7729 137.579 11.096V6.10404C137.579 5.42716 137.536 5.04642 137.458 4.96181C137.381 4.8772 137.027 4.83489 136.405 4.83489H123.116C122.472 4.83489 122.109 4.8772 122.029 4.96181C121.945 5.04642 121.908 5.42716 121.908 6.10404V11.096C121.908 11.7729 121.945 12.1476 122.029 12.2201C122.112 12.2927 122.469 12.3289 123.116 12.3289Z" fill="#392B5F"/>
<path d="M150.59 26.1082C149.32 26.0987 148.105 25.5646 147.207 24.6214C146.309 23.6782 145.801 22.4017 145.792 21.0678V5.05237C145.783 4.38978 145.904 3.73242 146.148 3.12111C146.391 2.5098 146.752 1.95758 147.207 1.49876C147.644 1.02065 148.169 0.641959 148.751 0.386206C149.333 0.130453 149.959 0.00309462 150.59 0.012037H165.835C166.466 0.00417136 167.091 0.132021 167.673 0.387709C168.255 0.643398 168.781 1.02151 169.218 1.49876C169.672 1.95857 170.032 2.51097 170.275 3.12205C170.518 3.73313 170.64 4.39001 170.633 5.05237V21.0678C170.624 22.4017 170.116 23.6782 169.218 24.6214C168.32 25.5646 167.105 26.0987 165.835 26.1082H150.59ZM151.556 21.2733H164.846C165.467 21.2733 165.821 21.231 165.916 21.1464C166.011 21.0618 166.054 20.681 166.054 20.0042V6.10396C166.054 5.42708 166.005 5.04633 165.916 4.96172C165.827 4.87711 165.467 4.83481 164.846 4.83481H151.556C150.909 4.83481 150.549 4.87711 150.469 4.96172C150.388 5.04633 150.348 5.42708 150.348 6.10396V20.0042C150.348 20.681 150.385 21.0618 150.469 21.1464C150.552 21.231 150.909 21.2854 151.556 21.2854V21.2733Z" fill="#392B5F"/>
<path d="M174.439 26.1082V0H179.444L194.69 19.0735V0H199.292V26.1082H194.287L178.996 7.01054V26.1082H174.439Z" fill="#392B5F"/>
<path d="M165.191 43V34.5088H172.592V35.781H166.414V38.1349H171.381V39.4101H166.414V43H165.191Z" fill="#68C6E6"/>
<path d="M174.715 43C174.524 43.0008 174.334 42.9617 174.156 42.885C173.979 42.8083 173.818 42.6955 173.682 42.5531C173.547 42.4106 173.439 42.2414 173.366 42.0552C173.293 41.869 173.256 41.6694 173.257 41.468V34.5088H174.468V41.2836C174.45 41.3442 174.449 41.4087 174.463 41.4702C174.478 41.5316 174.508 41.5878 174.55 41.6328C174.593 41.6777 174.646 41.7097 174.704 41.7254C174.763 41.7411 174.824 41.7398 174.882 41.7218H179.695C179.813 41.7376 179.933 41.7064 180.031 41.6342C180.096 41.5306 180.124 41.4067 180.112 41.2836V34.5088H181.334V41.4589C181.333 41.8647 181.179 42.2535 180.905 42.5405C180.632 42.8274 180.262 42.9893 179.876 42.9909L174.715 43Z" fill="#68C6E6"/>
<path d="M182.568 43V34.5088H184.006L189.414 41.2746V34.5088H190.637V43H189.199L183.779 36.2221V43H182.568Z" fill="#68C6E6"/>
<path d="M191.923 43V34.5088H198.539C198.732 34.5053 198.923 34.5432 199.102 34.6201C199.28 34.697 199.442 34.8113 199.577 34.956C199.716 35.0959 199.826 35.2645 199.901 35.4512C199.975 35.6378 200.012 35.8385 200.009 36.0408V41.4589C200.012 41.6611 199.975 41.8619 199.901 42.0485C199.826 42.2352 199.716 42.4037 199.577 42.5437C199.442 42.6884 199.28 42.8027 199.102 42.8796C198.923 42.9564 198.732 42.9943 198.539 42.9909L191.923 43ZM193.551 41.7278H198.363C198.482 41.7436 198.602 41.7124 198.7 41.6402C198.763 41.5362 198.791 41.4124 198.778 41.2896V36.2221C198.79 36.1003 198.763 35.9777 198.7 35.8746C198.602 35.8024 198.482 35.7711 198.363 35.787H193.551C193.434 35.773 193.317 35.8041 193.22 35.8746C193.151 35.975 193.12 36.099 193.134 36.2221V41.2896C193.12 41.4137 193.15 41.5388 193.22 41.6402C193.317 41.7107 193.434 41.7418 193.551 41.7278Z" fill="#68C6E6"/>
<path d="M26 13C26.0044 14.8927 25.5942 16.7633 24.7985 18.4799L17.5686 14.3C17.3203 14.1567 17.1141 13.9504 16.9707 13.7018C16.8273 13.4533 16.7518 13.1712 16.7518 12.8842C16.7518 12.5971 16.8273 12.3151 16.9707 12.0665C17.1141 11.8179 17.3203 11.6116 17.5686 11.4683L24.7084 7.3396C25.5606 9.1043 26.0022 11.0396 26 13Z" fill="#68C6E6"/>
<path d="M8.61772 14.3L1.24362 18.5671C0.410327 16.7953 -0.0145075 14.8584 0.00057088 12.8998C0.0156492 10.9412 0.470254 9.01106 1.33073 7.25232L8.61772 11.4653C8.86672 11.6084 9.07361 11.8148 9.21748 12.0637C9.36136 12.3125 9.43713 12.595 9.43713 12.8826C9.43713 13.1702 9.36136 13.4527 9.21748 13.7016C9.07361 13.9505 8.86672 14.1569 8.61772 14.3Z" fill="#68C6E6"/>
<path d="M12.2041 0V8.31458C12.2041 8.60157 12.1287 8.8835 11.9854 9.13201C11.8421 9.38052 11.636 9.58684 11.3879 9.73021C11.1397 9.87358 10.8583 9.94895 10.5718 9.94872C10.2854 9.9485 10.004 9.87269 9.75608 9.72894L2.40302 5.47685C3.52477 3.88863 4.98738 2.57231 6.68343 1.62456C8.37947 0.67681 10.2659 0.121701 12.2041 0Z" fill="#68C6E6"/>
<path d="M23.6842 5.5852L16.5204 9.72895C16.2727 9.87293 15.9915 9.9489 15.7051 9.9492C15.4187 9.94951 15.1373 9.87412 14.8893 9.73066C14.6413 9.5872 14.4355 9.38074 14.2926 9.13212C14.1497 8.88349 14.0748 8.6015 14.0754 8.31459V0.0180664C15.9882 0.176672 17.8421 0.758237 19.5037 1.72089C21.1652 2.68353 22.593 4.00331 23.6842 5.5852Z" fill="#392B5F"/>
<path d="M12.213 17.547V26C10.2517 25.8824 8.34265 25.3202 6.62977 24.3559C4.9169 23.3915 3.44492 22.0501 2.32483 20.4329L9.765 16.1326C10.0129 15.9889 10.2943 15.9131 10.5807 15.9128C10.8672 15.9126 11.1487 15.988 11.3968 16.1314C11.645 16.2747 11.8511 16.481 11.9943 16.7296C12.1376 16.9781 12.213 17.26 12.213 17.547Z" fill="#68C6E6"/>
<path d="M23.7593 20.3155C22.6699 21.9238 21.2351 23.2675 19.5599 24.248C17.8848 25.2285 16.0118 25.821 14.0783 25.9819V17.556C14.0764 17.2688 14.1503 16.9861 14.2924 16.7367C14.4345 16.4872 14.6398 16.2797 14.8876 16.1353C15.1354 15.9909 15.4169 15.9145 15.7036 15.9141C15.9903 15.9136 16.2721 15.989 16.5204 16.1326L23.7593 20.3155Z" fill="#68C6E6"/>
</svg>
