<svg width="30" height="30" viewBox="0 0 30 30" fill="none" xmlns="http://www.w3.org/2000/svg">
<path fill-rule="evenodd" clip-rule="evenodd" d="M4.6875 0H25.3125C27.9013 0 30 2.09867 30 4.6875V25.3125C30 27.9013 27.9013 30 25.3125 30H4.6875C2.09867 30 0 27.9013 0 25.3125V4.6875C0 2.09867 2.09867 0 4.6875 0ZM9.09376 10.9687C9.18749 11.0625 9.28124 11.25 9.28124 11.4375V18C9.375 18.2812 9.28124 18.4687 9.09376 18.6562L7.5 20.5312V20.8125H11.9063V20.5312L10.3125 18.6562C10.2187 18.4687 10.125 18.2812 10.125 18V12.2812L14.0625 20.8125H14.4375L17.8125 12.2812V19.125C17.8125 19.3125 17.8125 19.4062 17.7187 19.5L16.5 20.7187V21H22.4062V20.7187L21.2813 19.5937C21.1875 19.5 21.1875 19.3125 21.1875 19.2188V10.7812C21.0938 10.5937 21.1875 10.5 21.2813 10.4062L22.5 9.28124V9H18.375L15.375 16.4062L12 9H7.68751V9.28124L9.09376 10.9687Z" fill="white"/>
</svg>
