<svg width="16" height="18" viewBox="0 0 16 18" fill="none" xmlns="http://www.w3.org/2000/svg">
<path d="M4.51068 9.2286C4.51068 8.78257 4.20096 8.51637 3.65439 8.51637C3.43144 8.51637 3.28038 8.53787 3.20117 8.55943V9.99169C3.29482 10.013 3.40994 10.0202 3.56782 10.0202C4.15095 10.0202 4.51068 9.72525 4.51068 9.2286Z" fill="white"/>
<path d="M7.89331 8.5307C7.64837 8.5307 7.49043 8.55226 7.39655 8.57385V11.7472C7.49025 11.7691 7.6414 11.7691 7.77817 11.7691C8.77107 11.7761 9.41874 11.2294 9.41874 10.0708C9.42602 9.06298 8.83579 8.5307 7.89331 8.5307Z" fill="white"/>
<path d="M14.3751 6.66633H13.9773V4.74722C13.9773 4.73525 13.9754 4.72319 13.9738 4.71107C13.9732 4.63487 13.949 4.56002 13.8968 4.50071L10.7032 0.852558C10.7022 0.851626 10.7013 0.851295 10.7006 0.850273C10.6816 0.829011 10.6594 0.811329 10.6359 0.796022C10.629 0.791361 10.622 0.787451 10.6147 0.783421C10.5944 0.772325 10.5728 0.763123 10.5506 0.756477C10.5446 0.754792 10.5392 0.752327 10.5332 0.750763C10.5091 0.745049 10.484 0.74147 10.4586 0.74147H2.60992C2.25152 0.74147 1.96035 1.03296 1.96035 1.39107V6.66618H1.56271C1.05 6.66618 0.634277 7.08172 0.634277 7.5946V12.4226C0.634277 12.9351 1.05 13.3509 1.56271 13.3509H1.96038V16.6558C1.96038 17.0139 2.25155 17.3054 2.60995 17.3054H13.3278C13.6859 17.3054 13.9774 17.0139 13.9774 16.6558V13.3509H14.3751C14.8876 13.3509 15.3035 12.9351 15.3035 12.4226V7.59475C15.3034 7.0819 14.8876 6.66633 14.3751 6.66633ZM2.60992 1.39119H10.1338V4.71459C10.1338 4.89403 10.2794 5.03937 10.4586 5.03937H13.3278V6.66654H2.60992V1.39119ZM10.5839 10.0346C10.5839 10.9631 10.2458 11.6033 9.77737 11.9993C9.26701 12.4238 8.48966 12.6252 7.5401 12.6252C6.97173 12.6252 6.56884 12.5892 6.29506 12.5534V7.78941C6.69801 7.72479 7.22364 7.68879 7.77776 7.68879C8.69834 7.68879 9.29576 7.85443 9.76372 8.20682C10.2672 8.58107 10.5839 9.17822 10.5839 10.0346ZM2.11372 12.575V7.78941C2.45177 7.73216 2.92694 7.68879 3.59618 7.68879C4.27254 7.68879 4.75478 7.81834 5.07848 8.07757C5.38799 8.32209 5.59618 8.72515 5.59618 9.20011C5.59618 9.67523 5.4383 10.0782 5.15023 10.3514C4.77607 10.7041 4.22205 10.8626 3.57423 10.8626C3.43054 10.8626 3.30057 10.8552 3.20027 10.8408V12.5751H2.11372V12.575ZM13.3278 16.48H2.60992V13.3509H13.3278V16.48H13.3278ZM14.269 8.62429H12.4048V9.73249H14.1464V10.6249H12.4048V12.575H11.3044V7.72479H14.269V8.62429Z" fill="white"/>
</svg>
