<svg width="30" height="30" viewBox="0 0 30 30" fill="none" xmlns="http://www.w3.org/2000/svg">
<path fill-rule="evenodd" clip-rule="evenodd" d="M0 4.6875C0 2.09867 2.09867 0 4.6875 0H25.3125C27.9013 0 30 2.09867 30 4.6875V25.3125C30 27.9013 27.9013 30 25.3125 30H4.6875C2.09867 30 0 27.9013 0 25.3125V4.6875ZM21.5748 10.0473C21.4293 10.2369 21.6122 10.631 21.8421 10.5655C22.0482 10.5067 22.2299 10.735 22.0937 10.9006C21.8377 11.212 21.5373 11.4888 21.2066 11.7171C21.0272 11.841 20.9137 12.0431 20.9141 12.2611C20.9211 16.5653 17.753 21.0938 12.1875 21.0938C11.4677 21.0938 10.7651 20.9914 10.0867 20.8086C9.45458 20.6382 9.74494 19.5788 10.3637 19.3649C10.9156 19.174 10.6717 18.3636 10.191 18.0321C9.73404 17.717 9.37142 17.2812 9.14186 16.7789C9.06698 16.6151 9.21522 16.4438 9.39536 16.445C9.64703 16.4467 9.68926 16.0358 9.47806 15.899C8.70266 15.3965 8.15194 14.5818 8.00675 13.6873C7.97065 13.4648 8.20841 13.3172 8.42053 13.3932C8.71223 13.4979 8.85184 13.1506 8.6647 12.9036C8.20994 12.3033 7.97668 11.5648 8.01837 10.827C8.05813 10.1233 8.91333 10.0265 9.44465 10.4897C10.0296 10.9996 10.6738 11.4337 11.365 11.7766C12.9718 12.5738 14.5571 10.5515 16.0075 9.49611C16.5129 9.12835 17.1349 8.90625 17.8125 8.90625C18.5234 8.90625 19.2344 9.17249 19.7771 9.59281C19.9636 9.73728 20.2029 9.80995 20.4308 9.74883C20.7715 9.65746 21.0911 9.55904 21.3897 9.43359C21.6266 9.33406 21.8899 9.54389 21.7619 9.7667C21.7055 9.86482 21.643 9.95836 21.5748 10.0473Z" fill="#BBA9EC"/>
</svg>
